<?xml version="1.0" encoding="utf-8"?>
<!-- Generator: Adobe Illustrator 16.0.0, SVG Export Plug-In . SVG Version: 6.00 Build 0)  -->
<!DOCTYPE svg PUBLIC "-//W3C//DTD SVG 1.1//EN" "http://www.w3.org/Graphics/SVG/1.1/DTD/svg11.dtd" [
	<!ENTITY ns_extend "http://ns.adobe.com/Extensibility/1.0/">
	<!ENTITY ns_ai "http://ns.adobe.com/AdobeIllustrator/10.0/">
	<!ENTITY ns_graphs "http://ns.adobe.com/Graphs/1.0/">
	<!ENTITY ns_vars "http://ns.adobe.com/Variables/1.0/">
	<!ENTITY ns_imrep "http://ns.adobe.com/ImageReplacement/1.0/">
	<!ENTITY ns_sfw "http://ns.adobe.com/SaveForWeb/1.0/">
	<!ENTITY ns_custom "http://ns.adobe.com/GenericCustomNamespace/1.0/">
	<!ENTITY ns_adobe_xpath "http://ns.adobe.com/XPath/1.0/">
]>
<svg version="1.1" id="Layer_1" xmlns:x="&ns_extend;" xmlns:i="&ns_ai;" xmlns:graph="&ns_graphs;"
	 xmlns="http://www.w3.org/2000/svg" xmlns:xlink="http://www.w3.org/1999/xlink" x="0px" y="0px" width="612px" height="792px"
	 viewBox="0 0 612 792" enable-background="new 0 0 612 792" xml:space="preserve">
<metadata>
	<sfw  xmlns="&ns_sfw;">
		<slices></slices>
		<sliceSourceBounds  width="286.277" height="740.779" bottomLeftOrigin="true" y="-778.461" x="160.412"></sliceSourceBounds>
	</sfw>
</metadata>
<g>
	<g>
		<path fill="#FFFFFF" d="M206.467,108.86c-0.002-0.004-0.003-0.009-0.005-0.013c-0.013-0.001-0.024-0.003-0.037-0.003
			L206.467,108.86z"/>
		<path fill="#FFFFFF" d="M446.086,720.333c0.143-0.271,0.094-0.505-0.141-0.703c0.381-9.723,1.299-19.439-0.715-29.132
			c-0.844-4.076-2.014-8.602-1.73-12.327c1.012-13.381-2.727-26.14-3.676-39.225c-1.059-14.673-5.252-28.892-7.057-43.491
			c-1.074-8.701-3.189-17.321-3.609-26.041c-0.436-9.236-0.799-18.436-1.928-27.617c-0.648-5.228-2.332-10.326-2.799-15.456
			c-1.447-15.912-3.924-31.676-6.098-47.479c-0.732-5.336-0.697-10.89-3.01-15.955c0.355-12.148-2.543-23.596-7.467-34.605
			c1.512-1.896,0.682-3.923-0.061-5.668c-2.432-5.776-3.365-11.933-4.947-17.927c-2.664-10.124-7.324-19.349-13.133-28.018h0.002
			c0-0.788-0.311-1.34-1.143-1.497c-0.227-0.437-0.455-0.872-0.686-1.307c-3.91-9.354-10.873-16.745-16.484-24.978
			c-1.564-2.296-2.789-5.792-6.268-6.638c-1.447-0.646-2.217-1.961-3.107-3.157c2.762-4.709-2.17-4.546-4.012-6.342l-0.096-0.116
			c-2.721-1.033-5.732-1.538-7.293-4.158c1.561,2.62,4.574,3.125,7.297,4.158c-0.084-0.727,0.037-1.565-0.277-2.175
			c-4.709-9.071-11.732-16.651-16.346-25.847c-3.992-7.96-8.869-15.478-13.357-23.189c-0.236-0.452-0.465-0.904-0.697-1.356
			c0.271-3.342-1.029-6.262-2.463-9.145l-0.064-0.31c0.643-0.941,1.361-1.884-0.066-2.78c-2.139-6.872-4.131-13.795-6.471-20.599
			c-1.674-4.871-1.748-10.267-4.822-14.682c-0.658-0.948-0.344-1.886,0.451-2.657c2.395-2.322,1.791-5.349,1.049-7.812
			c-3.367-11.173-3.686-22.834-5.836-34.197c-1.895-9.99-3.729-19.973-4.69-30.18c-1.225-12.994-4.288-25.819-6.705-38.69
			c-0.701-3.762-0.785-7.447-0.124-11.184c-2.469,0.539-4.646,1.659-6.832,3.357c2.186-1.698,4.363-2.818,6.832-3.359l0.586,0.019
			l0.474-0.34c5.837,0.008,11.198-1.422,16.379-4.276c2.746-1.514,3.852-3.773,3.299-6.025c-2.027-8.214-0.412-16.743-2.598-24.952
			c-0.621-2.333-2.832-4.283-1.945-7.008l-0.061-0.205c-0.283-0.435-0.562-0.868-0.846-1.299c-0.461,0.062-0.695-0.144-0.691-0.614
			c-0.674,0.043-1.031-0.302-1.148-0.938c0.002,0.002-0.311-0.157-0.311-0.157c-3.757-0.922-7.618-1.546-11.241-2.834
			c-5.229-1.858-0.721-7.245-3.325-10.324c-1.057-1.242-1.274-3.193-1.873-4.82c0,0.001-0.243-0.228-0.243-0.228
			c-0.864,0.026-1.322-0.373-1.309-1.263c0,0.001-0.236-0.235-0.236-0.235c-0.896,0.042-1.247-0.505-1.396-1.278
			c-2.665-0.631-5.308-1.583-8.01-1.841c-13.184-1.259-26.482-2.377-39.613-0.705c-9.557,1.216-19.372,2.128-28.288,6.818
			c-4.107,2.162-5.973,4.787-5.844,9.364c0.164,5.755,0.025,11.526-0.209,17.281c-0.055,1.442,0.66,3.064-1.781,4.254
			c-6.039,2.949-7.326,8.282-5.773,14.562c0.479,1.935,0.604,3.959,0.887,5.943c1.354,4.032,2.712,8.065,4.07,12.096
			c0.868,0.046,1.518,0.37,1.696,1.313c0-0.002,0.112,0.06,0.112,0.06c6.171,2.112,5.98,2.126,6.393,8.121
			c1.12,16.29,0.062,32.622,0.985,48.896c0.594,10.503,1.302,21.011,2.414,31.498c1.188,11.207,0.893,22.52,0.499,33.796
			c-0.198,5.751-0.869,11.5-0.118,17.26c-1.213,8.693-1.578,17.61-3.82,26.031c-4.867,18.281-12.312,35.658-22.799,51.451
			c-10.099,15.201-16.829,31.997-23.423,48.727c-7.95,20.176-8.646,41.661-7.623,63.17c0.354,7.487,0.271,15,0.388,22.5
			c0.003,0.492,0.005,0.988,0.012,1.481c1.671,11.077,1.241,22.21,0.887,33.34c0.594,1.49,0.788,2.999,0.228,4.545
			c2.556,19.204,0.745,38.563,2.318,57.861c2.035,24.995,1.949,50.148,3.322,75.21c1.336,24.33,1.571,48.72,4.452,72.975
			c0.681,5.733,2.192,10.659,5.465,15.222c1.712,6.7,7.047,10.855,11.851,14.772c12.443,10.147,26.805,17.346,41.429,23.817
			c7.277,3.214,14.963,5.622,22.993,6.472c-4.858,3.301-10.727-0.111-16.01,1.989c1.926,2.438,4.481,1.225,6.323,2.039
			c9.051,4.021,18.94,4.5,28.399,5.737c20.127,2.643,40.375,0.93,60.553-1.484c16.287-1.945,31.496-7.641,46.959-12.419
			c9.254-2.856,18.371-6.528,27.025-10.881c10.645-5.356,21.678-9.882,32.145-15.678c4.457-2.475,6.514-5.159,6.531-9.729
			C446.057,724.741,447.459,722.525,446.086,720.333z M169.438,407.206c-0.002-0.072-0.019-0.139-0.05-0.195
			C169.419,407.067,169.435,407.134,169.438,407.206z M264.035,56.058c0.066,0.022,0.135,0.04,0.201,0.063
			C264.169,56.098,264.101,56.081,264.035,56.058z M385.463,376.635c0.598,0.254,1.207,0.303,1.816,0.275
			C386.67,376.938,386.061,376.89,385.463,376.635z M271.222,246.867c0,0,0.002-0.003,0.002-0.003
			C271.224,246.865,271.223,246.866,271.222,246.867L271.222,246.867z M210.25,344.469c0.082-0.095,0.16-0.199,0.232-0.312
			C210.411,344.271,210.333,344.375,210.25,344.469z M210.131,344.585c-0.048,0.047-0.094,0.098-0.145,0.141
			C210.038,344.684,210.083,344.633,210.131,344.585z M209.819,344.846c-0.04,0.028-0.079,0.06-0.121,0.085
			C209.74,344.906,209.779,344.874,209.819,344.846z M209.483,345.041c-0.033,0.016-0.063,0.034-0.097,0.048
			C209.419,345.075,209.45,345.057,209.483,345.041z M316.268,732.298h-0.002H316.268z M219.458,727.155
			c0.001,0,0.002,0.001,0.003,0.001c-0.186,0.418-0.367,0.836-0.549,1.254C219.094,727.992,219.276,727.573,219.458,727.155z
			 M423.012,701.869c0-0.002,0-0.004-0.002-0.005C423.012,701.865,423.012,701.867,423.012,701.869z M422.84,701.288
			c-0.008-0.023-0.014-0.048-0.021-0.071C422.826,701.24,422.832,701.265,422.84,701.288z M422.627,700.736
			c-0.021-0.051-0.037-0.103-0.061-0.152C422.59,700.634,422.605,700.686,422.627,700.736z M322.75,276.846
			c-0.033-0.55,0.08-1.198,0.33-1.98C322.83,275.648,322.717,276.296,322.75,276.846z"/>
	</g>
	<path fill-rule="evenodd" clip-rule="evenodd" fill="#2C2A37" d="M202.392,96.751c-0.283-1.984-0.407-4.009-0.887-5.943
		c-1.553-6.28-0.266-11.613,5.773-14.562c2.441-1.19,1.727-2.812,1.781-4.254c0.234-5.755,0.373-11.526,0.209-17.281
		c-0.129-4.577,1.736-7.202,5.844-9.364c8.916-4.69,18.731-5.603,28.288-6.818c13.131-1.672,26.43-0.554,39.613,0.705
		c2.702,0.258,5.345,1.21,8.01,1.841c0.148,0.772,0.499,1.32,1.396,1.278c0,0,0.236,0.236,0.236,0.235
		c-0.014,0.89,0.444,1.289,1.309,1.263c0,0,0.243,0.229,0.243,0.228c0.599,1.627,0.816,3.578,1.873,4.82
		c2.604,3.079-1.903,8.466,3.325,10.324c3.623,1.288,7.483,1.912,11.241,2.834c0,0,0.312,0.159,0.311,0.157
		c0.117,0.636,0.475,0.98,1.148,0.938c-0.004,0.471,0.23,0.676,0.691,0.614c0.283,0.431,0.562,0.865,0.846,1.299l0.061,0.205
		c-0.887,2.725,1.324,4.675,1.945,7.008c2.186,8.209,0.57,16.738,2.598,24.952c0.553,2.252-0.553,4.512-3.299,6.025
		c-5.182,2.854-10.542,4.284-16.379,4.276c0.979-1.638,2.882-1.946,4.279-2.976c2.181-1.604,3.954-3.91,2.83-6.394
		c-2.005-4.434-0.465-8.457,0.618-12.476c1.029-3.797,2.39-7.24-2.013-9.867c-0.628-0.375-0.851-1.772-0.905-2.716
		c-0.447-7.916-0.4-8.013-7.759-9.59c-3.677-0.789-6.669-1.765-7.501-6.22c-0.301-1.615-1.021-2.931-0.77-4.849
		c0.635-4.735-0.313-5.734-5.305-7.091c-1.591-0.432-3.118-1.935-4.94-0.595c-0.323,2.083,1.373,3.024,2.284,4.453
		c1.655,2.589,1.422,4.82-2.186,5.508c-1.737-0.88-2.95-2.787-5.078-2.846c-4.886-0.133-9.769,0.082-14.665-0.463
		c-1.464-0.164-3.47,0.305-4.61,1.886c-2.218,0.06-4.44,0.118-6.663,0.179c-2.722-0.57-5.32-0.079-8.049,0.364
		c-4.458,0.724-6.188,2.597-6.19,7.272c-0.007,4.917,0.704,9.936-0.65,14.815c-0.644-0.361-1.354-0.64-1.915-1.099
		c-1.663-1.354-1.428-6.234-4.827-3.892c-3.109,2.143-4.582-1.382-6.86-0.634c-0.991,0.329-2.173,1.46-1.825,2.121
		c2.543,4.815-3.5,5.376-4.178,8.792c2.118,1.573,5.362,3.485,3.564,6.354c-2.21,3.536-0.618,4.686,1.854,6.585
		c3.306,2.54,3.051,3.77-0.561,5.976c-1.304,0.796-2.68,1.404-4.252,1.406c-0.231-0.723-0.459-0.85-0.576-0.352
		c-0.013,0.059,0.388,0.218,0.597,0.331c0.014,1.766-0.048,3.571,1.294,4.968c4.162,4.327,4.594,9.828,4.723,15.354
		c0.142,6.282-0.352,12.603,0.154,18.851c0.788,9.778-1.959,19.88,2.856,29.435c0.557,1.111-0.917,3.775,1.659,4.888
		c-6.418,3.406,0.226,6.115,0.208,8.989c-0.035,5.312,4.354,3.088,6.132,4.96c2.79,2.934,5.209,0.472,7.92-0.422
		c-2.789-5.243-2.793-5.247,1.643-8.119c0.62-0.4,1.393-0.868,0.921-1.643c-0.338-0.555-1.281-1.263-1.751-1.138
		c-2.858,0.759-5.691,1.895-7.928-1.46c2.415-1.553,3.325-3.27,2.266-6.302c-1.358-3.898-0.404-7.354,4.627-8.366
		c-2.715-2.153-2.678-2.495-0.944-5.556c0.452-0.803,0.36-1.946,0.418-2.937c0.104-1.747-0.138-3.679,2.004-4.427
		c2.876-1.002,2.344-3.413,2.593-5.622c0.382-3.384-1.817-6.277-1.619-9.592c4.473,1.898,9.07,3.165,13.995,2.772
		c6.035-0.177,12.145,1.293,17.976-0.339c0-2.671,0-4.886,0-7.1c2.054,0.393,4.833-0.791,5.753,2.188
		c1.298,4.205,4.444,4.377,7.803,3.638c3.544-0.779,5.757-3.288,5.854-6.883c0.104-4.087,1.046-8.426,2.807-11.449
		c2.765-4.735-1.778-3.53-3.002-4.991c2.186-1.698,4.363-2.818,6.832-3.357c-0.661,3.736-0.577,7.422,0.124,11.184
		c2.417,12.871,5.48,25.696,6.705,38.69c0.961,10.208,2.795,20.19,4.69,30.18c2.15,11.362,2.469,23.024,5.836,34.197
		c0.742,2.463,1.346,5.49-1.049,7.812c-0.795,0.771-1.109,1.709-0.451,2.657c3.074,4.415,3.148,9.811,4.822,14.682
		c2.34,6.804,4.332,13.727,6.471,20.599c-2.52,1.926-5.672,1.382-8.586,2.111c2.881,1.271,5.76,1.042,8.652,0.667l0.064,0.311
		c-3.189,6.404-2.848,7.676,2.463,9.145c0.232,0.452,0.461,0.904,0.697,1.356c-2.391,0.86-4.781,1.721-8.01,2.885
		c7.289,1.288,7.281,1.288,6.924,8.054c-0.023,0.47-0.07,1.276,0.137,1.367c3.334,1.458,4.018,5.48,6.268,7.148
		c1.99,1.477,3.232,2.738,3.732,4.844c1.309,5.542,2.346,11.179,7.715,14.547c-0.584,3.993,4.52,3.335,5.092,6.023
		c0.98,4.598,4.771,5.071,8.119,6.342l0.096,0.116c-0.551,5.543-0.551,5.543,4.012,6.342c0.891,1.196,1.66,2.511,3.107,3.157
		c-0.166,4.272,0.119,8.353,4.531,10.683c0.734,0.388,1.24,1.016,0.518,1.654c-0.736,0.652-2.889-0.462-2.504,1.529
		c0.281,1.45,2.084,0.987,3.23,1.281c1.305,0.333,2.334,1.054,2.92,2.182c2.406,4.621,8.195,6.431,9.66,11.945
		c0.422,1.585,2.488,2.366,4.396,2.342c0.23,0.436,0.459,0.871,0.686,1.307c-1.207,0.396-2.754-0.333-3.709,1.116
		c1.578,1.083,3.24,0.397,4.85,0.381c5.809,8.669,10.469,17.894,13.133,28.018c1.582,5.994,2.516,12.15,4.947,17.927
		c0.742,1.745,1.572,3.771,0.061,5.668c-0.502-0.016-1.119,0.153-1.48-0.074c-6.123-3.836-1.652-13.002-8.309-16.638
		c-0.121-0.067,0.232-0.926,0.291-1.421c0.344-2.855,3.59-6.274-1.545-8.082c0.018-3.459,0.467-7.126-2.539-9.672
		c-2.363-2-1.963-6.323-5.24-7.051c-6.047-1.346-10.012-6.837-16.58-7.438c-2.604-0.238-4.719,1.219-7.188,0.558
		c-1.623-0.436-3.812,0.273-4.332-2.065c-1.721-7.749-6.822-13.507-11.314-19.638c-1.887-2.579-1.195-4.414,1.957-5.502
		c0.959-0.329,2.371,0.561,3.092-1.222c-4.082-0.274-5.637-6.305-10.695-4.027c-0.904,0.406-1.551-1.059-1.988-1.939
		c-1.924-3.867-7.703-5.187-6.914-11.112c0.164-1.211-3.148-2.772-4.244-4.905c-2.146-4.188-3.85-9.056-7.164-12.08
		c-4.133-3.771-4.035-8.976-6.119-13.275c-2.293-4.737-6.094-9.949-4.025-16.141c0.182-0.543-0.406-0.894-1.043-0.797
		c-1.316-1.104-2.664,6.884-4.266-0.076c-0.418-1.819-3.024-1.047-4.687-0.378c-1.754,0.704-1.279,3.097-3.12,4.081
		c-0.919-1.534-2.531-3.317-1.453-4.776c2.308-3.136,1.205-5.009-0.856-7.742c-2.047-2.706-0.29-5.141,3.231-6.594
		c2.553-1.055,5.297-0.397,7.901-1.037c-0.592-1.973-2.549-0.685-3.19-1.992c0.323-0.263,0.616-0.667,0.991-0.777
		c1.527-0.451,3.129-1.148,2.936-2.888c-0.225-2.026-2.207-1.584-3.636-1.68c-2.975-0.199-5.542,0.104-5.96,3.986
		c-0.062,0.572-2.371,2.069-2.71,0.209c-0.715-3.898-5.868-6.174-4.033-10.905c1.693-0.208,2.148,1.42,3.321,1.784
		c1.038,0.324,2.27,0.2,2.479-0.88c0.223-1.151-0.482-2.465-0.344-3.656c0.215-1.87,3.207-3.111,1.675-5.357
		c-4.391-6.43-8.062-13.684-16.525-15.953c-1.64,3.442-1.019,6.841-0.79,10.355c0.584,9.078,5.918,17.238,4.9,26.623
		c-0.142,1.281,0.968,2.87,1.857,4.046c1.413,1.872,1.934,3.953,2.583,6.148c1.423,4.785,3.082,9.551,5.185,14.074
		c5.062,10.887,10.717,21.435,17.112,31.655c9.545,15.254,19.49,30.224,30.723,44.244c11.434,14.272,18.766,30.812,26.545,46.986
		c5.867,12.214,8.844,25.773,14.318,38.295c0.367,0.843,0.086,1.982,0.053,2.982c-0.27,7.424-0.863,14.855,0.826,22.205
		c-2.422-0.668-4.699-0.034-6.197,1.752c-1.768,2.103-4.107,3.138-6.455,3.577c-8.156,1.521-15.281,5.478-22.676,8.855
		c-2.037,0.93-4.291,2.062-6.41,1.988c-3.717-0.129-6.121,1.78-8.586,3.935c-1.389-0.305-2.793-0.701-3.922,0.629
		c-4.588,1.107-9.172,2.216-13.76,3.325c-0.826,0.04-1.65,0.079-2.477,0.123c-9.748,2.303-19.571,3.713-29.624,2.604
		c-1.985-0.222-4.026-0.404-5.566,1.346c-0.475,0.138-0.954,0.23-1.44,0.276c-4.145,0.096-8.288,0.188-12.433,0.28
		c-2.31,0.246-5.206-1.333-6.497,2.087c-2.179-0.731-4.354-1.472-6.526-2.204c-2.146,0.496-4.123-2.931-6.361-0.271
		c-2.493,0.11-4.994,0.222-7.487,0.332c-1.409-2.118-2.94-2.357-4.615-0.292c-0.998-0.062-1.999-0.126-2.995-0.188
		c-0.314-0.739-0.876-1.151-1.679-1.235c-0.583,0.12-1.167,0.24-1.75,0.36c-0.421-0.086-0.833-0.219-1.228-0.394
		c-7.408-1.921-14.817-3.843-22.229-5.764c-3.757-1.925-7.438-4.016-11.293-5.721c-2.818-1.25-4.677,0.046-3.979,2.952
		c2.481,10.333,0.609,20.79,1.287,31.159c-1.436,6.078-2.494,12.119-0.003,18.246c0.52,1.274-0.04,2.955,0.058,4.439
		c0.429,6.44-0.714,12.894,0.216,19.329c-0.034,0.701-0.067,1.403-0.104,2.105c1.227,6.06,2.168,12.21,0.765,18.3
		c-1.018,4.416-0.424,8.831-0.919,13.215c-2.267,0.013-4.531,0.013-6.798,0.037c-1.262,0.013-2.389,0.197-3.343,1.281
		c-6.078,6.927-3.797,17.728,4.624,21.656c2.937,1.367,6.965-1.065,6.5-4.15c-0.59-3.897,0.114-7.45,2.25-10.622
		c1.406-2.094,1.287-4.255,1.253-6.509c0.416-0.24,0.856-0.412,1.323-0.523c0.89,1.466,2.263,2.199,3.779,1.447
		c2.071-1.028,3.857-0.357,5.732,0.32c6.515,1.799,12.968,4.384,19.858,1.656c0.667,3.979,3.595,4.262,6.773,4.144
		c3.43-0.56,6.269,2.477,9.746,1.602c2.471,0.265,4.934,0.727,7.402,0.757c6.527,0.093,13.106,1.909,19.584-0.425
		c2.535-0.03,5.064-0.061,7.603-0.092c2.327,1.201,4.877,1.466,7.42,1.755c4.98,2.291,17.035,2.21,22.789-0.16l0.047-0.031
		c3.092-0.086,6.182-0.166,9.27-0.252l0.506,0.006l0.498-0.03c2.734,0.394,5.561,1.317,7.74-1.386h-0.014
		c1.947-0.043,3.896-0.079,5.846-0.123c2.34,0.395,4.668,0.881,7.02,1.151c2.086,0.24,2.156-1.337,2.186-2.82
		c0.42-0.492,0.832-0.985,1.25-1.478c2.828,0.462,5.646,0.628,8.461-0.067c2.014,0.517,3.686-0.573,5.465-1.158
		c3.871-1.386,7.742-2.765,11.613-4.15c1.852,1.804,3.553,0.794,5.25-0.276c0.479-0.29,0.961-0.579,1.439-0.869
		c1.018-0.062,2.029-0.123,3.043-0.178c0.641,0.24,1.273,0.479,1.914,0.72c0.402-0.073,0.768,0,1.109,0.229
		c-0.582,0.763-1.01,1.951-1.768,2.229c-3.924,1.435-7.619,3.14-10.664,6.139c-1.084,1.071-2.76,0.794-4.223,0.807
		c-0.496-1.016-0.994-1.078-1.502-0.006c-0.889,0.362-1.93,0.541-2.643,1.12c-3.438,2.82-6.744,5.985-10.9,0.954
		c-0.283-0.345-1.744-0.332-1.98,0c-2.238,3.135-6.592,3.609-8.623,6.946l-0.148,0.13c-0.883-0.42-2.025-0.61-2.598-1.287
		c-1.289-1.527-2.211-3.714-4.682-2.95c-2.488,0.764-1.008,2.833-1.145,4.446c-0.295,3.393-5.418,2.451-5.727,6.016
		c-0.961-1.662-5.209-0.665-3.572-4.674c0.344-0.831-1.643-2.592-3.24-2.549c-1.809,0.056-1.523,1.675-1.318,2.881
		c0.176,1.035,0.107,2.661-0.816,2.298c-4.559-1.773-7.07,3.3-10.609,3.061c-3.085-0.204-3.604,4.205-5.715,2.832
		c-3.095-2.013-5.246,0.905-7.894,0.505c-1.854-0.277-3.248,0.529-4.438,2.168c-1.644,2.266-3.683,4.248-5.551,6.354
		c-3.038,0.154-6.077,0.315-9.112,0.469c-3.522,0.056-7.039,0.104-10.555,0.16c-4.427-0.56-8.892-0.296-13.332-1.034
		c-9.267-1.552-18.603-2.697-27.913-4.003c-4.039-2.18-8.531-2.813-12.918-3.812c-4.637-1.638-9.273-3.27-13.411-4.729
		c-1.164,0.369-1.207,0.771-1.247,1.367c-0.489,6.897,1.111,13.911,0.083,20.598c-0.914,5.929-0.468,11.354,0.901,16.939
		c-2.3,0.389-3.999,1.779-3.302,4.046c0.88,2.876-3.271,6.059,0.224,8.257c3.741,2.354-1.333,4.971,0.896,7.76
		c1.477,1.854,1.607,5.283,1.508,8.436c-0.216,6.772,4.366,12.66,10.844,16.41c1.294,0.745,2.789,1.324,3.787,2.37
		c3.587,3.763,7.984,4.878,12.955,4.458c5.968,1.694,11.978,3.253,17.895,5.105c13.122,4.113,26.639,6.706,40.179,8.301
		c11.077,1.312,22.454,0.395,33.531-1.996c1.225,0.136,2.492,0.554,3.656,0.364c11.711-1.935,23.404-3.966,35.105-5.968
		c2.57,0.616,4.924-0.159,7.367-0.911c7.908-2.432,15.889-4.649,23.807-7.051c2.289-0.695,4.465-1.638,7.68,0.21
		c-8.744,3.854-15.535,9.391-23.727,12.31c-6.359,2.267-12.541,5.308-19.268,6.176c-4.303,0.555-8.447,1.312-12.346,3.104
		c-3.484,1.605-7.191,2.229-10.885,2.869c-13.812,2.401-27.624,4.833-41.482,6.964c-8.146,1.25-16.331,3.547-24.622,2.111
		c-14.291-2.476-28.639-4.711-42.472-9.458c-12.189-4.182-23.847-9.18-33.873-17.451c-1.111-5.393-3.002-10.665-0.964-16.36
		c0.462-1.299-0.435-4.077-1.567-4.778c-4.067-2.506-3.261-5.578-1.949-9.033c0.739-1.946,1.561-3.689-1.958-4.149
		c-2.758-0.357-3.11-2.551-0.457-3.85c2.92-1.428,2.744-2.728,0.777-4.785c-0.628-0.658-1.177-1.933-0.979-2.739
		c0.733-3.03-1.921-6.423-0.055-8.806c2.827-3.608-2.74-5.523-0.997-8.472c1.443-2.445-1.244-5.284,1.917-8.116
		c3.448-3.086-0.914-2.809-2.787-3.203l-0.036-0.037c0.019-2.765-0.33-5.591,0.132-8.282c1.087-6.336-2.546-12.733,0.416-18.989
		c-2.771-7.962-3.75-15.955-2.709-24.508c0.418-3.454-1.519-7.186,1.29-10.548c0.538-0.646,0.858-2.383,0.462-2.765
		c-4.468-4.311-0.28-10.622-3.771-15.326c-1.681-2.26,1.971-5.395,0.926-7.932c-2.14-5.196-1.425-10.437-1.271-15.714
		c0.172-5.844-0.979-11.706-0.794-17.433c0.308-9.76,0.067-19.444-0.529-29.161c-0.135-2.174,2.288-4.514,0.917-6.5
		c-2.844-4.128-1.853-8.45-1.524-12.792c0.33-4.378-1.222-8.812,0.428-13.141c0.683-0.246,0.8-0.478,0.327-0.572
		c-0.068-0.013-0.222,0.369-0.333,0.569c-1.786-3.229-2.94-6.974-1.404-10.188c1.995-4.182-2.328-6.454-1.873-10.24
		c0.715-5.948,0.419-12.044,0.204-18.061c-0.258-7.247,0.869-14.101,4.49-20.45l0.166-0.164c0.659-0.444,1.275-1.472,0.757-1.767
		c-2.703-1.546-4.125-2.953-1.28-5.864c0.794-0.811,0.308-2.867,0.412-4.353l0.077-0.079c3.322-1.43-3.409-4.468,0.958-5.857
		c1.228-0.393,3.578-6.008,4.119-7.243c0.949-2.165-0.403-3.89-0.511-5.817c-0.209-3.709,1.016-5.382,5.344-7.239
		c0.813-0.346,1.371-0.719,0.776-1.405c-2.324-2.699-0.828-4.473,1.256-6.276c5.037-4.362,9.396-9.203,10.728-16.058
		c0.641-0.252,1.281-0.506,1.922-0.761c-0.641-0.251-1.281-0.503-1.929-0.754l-0.336-0.605l-0.264,0.261l0.6,0.344
		c0.044,0.504,0.044,1.008,0,1.512c-3.301-0.423-3.581-1.954-1.696-4.417c1.4-1.829,4.698-2.873,3.79-5.675
		c-1.483-4.562,1.134-7.024,3.854-9.661c0.752,2.753,1.595,5.49,0.459,8.518c5.718,0.096,8.599-4.787,13.275-5.4l-0.016-0.015
		c0.148,3.39,0.13,6.743-1.809,9.755c-1.092,1.698-1.281,3.598-1.072,5.561l0.067-0.046c-1.152,0.12-2.694-0.045-2.494,1.693
		c0.117,1.032,1.389,1.104,2.328,1.238c-1.583,4.136-2.758,8.489-4.821,12.374c-7.279,13.718-10.72,28.34-12.192,43.725
		c-0.432,4.502,0.634,8.966-0.36,13.233c-0.979,4.212-1.154,8.275-0.466,12.438c1.983,12.038,0.616,24.169,0.971,36.247
		c0.017,0.511-0.914,1.05-1.406,1.58c-0.536-1.195-0.977-1.017-1.343,0.098l0.166-0.012c-1.234-0.173-2.476-0.324-3.707-0.524
		c-4.529-0.745-5.234-0.179-5.684,4.089c-0.296,2.809,1.598,5.899-1.093,8.461c-0.292,0.277-0.064,1.586,0.342,2.038
		c3.441,3.842,5.468,9.822,12.836,8.534c-0.799-3.79,3.79-6.027,2.919-9.63c-0.798-3.311-2.67-6.355-4.006-9.545
		c-0.283-0.674-0.303-1.459-0.444-2.197c4.741-0.487,9.114,1.249,13.597,2.29c5.031,0.957,9.938,2.679,15.167,2.328
		c10.871,3.368,22.066,5.015,33.332,6.287c2.732,2.625,6.061,1.219,9.162,1.349c2.943,0.485,5.892,0.307,8.902,0.91
		c7.179,1.441,14.598,0.422,21.919,0.758c9.341,0.431,18.839,0.748,28.169-1.417c2.635-0.615,5.514-0.228,8.281-0.224
		c4.027,0.003,8.072,0.215,11.869-1.516c2.361-0.083,4.725-0.166,7.09-0.249c3.664,0.462,7.326,1.28,10.992,1.299
		c6.721,0.037,9.605-3.737,7.947-10.271c-0.803-3.149-1.268-6.354-2.193-9.508c-3.457-11.755-8.088-23.066-12.428-34.482
		c-2.865-7.547-6.252-14.938-9.479-22.291c-6.496-14.806-14.691-28.881-22.518-43.076c-2.938-5.328-4.477-11.128-6.924-16.592
		c-3.668-8.183-6.828-16.521-9.733-25.017c-2.312-6.765-5.395-13.319-7.647-21.119c-1.635,3.685-0.167,5.971,0.122,8.396
		c0.745,6.174,4.576,11.876,2.839,18.415c-6.225,0.508-3.959,5.983-5.03,9.266c-0.469,1.436,0.394,3.331-1.559,4.345
		c-0.855-2.091-2.315-4.138-2.462-6.277c-0.586-8.439-5.617-16.142-4.009-24.946c0.189-1.032-0.869-2.292-1.349-3.447
		c-1.146-4.864-1.619-9.84-1.547-14.792c0.204-13.185-2.647-26.104-3.144-39.203c-0.175-4.653-2.003-5.675-6.013-4.561
		c-1.028-0.368-1.349,0.337-1.649,1.081c0,0,0.122-0.205,0.119-0.204c-5.467,2.616-11.715,1.256-17.278,3.387
		c-1.352-0.363-2.887-0.003-4.073-1.028c1.274-2.778,2.002-5.645,1.552-8.736c-0.159-1.099-0.841-2.334-1.755-1.866
		c-5.757,2.956-5.938-2.006-7.327-5.062c-2.457-5.392-4.771-10.847-7.105-16.292c-0.566-1.318-0.542-2.983-2.65-3.043
		c-5.01-0.14-7.944,2.494-8.225,7.69c-0.073,1.476-0.209,3.212,0.443,4.415c1.749,3.208,1.86,5.621-1.097,8.407
		c-1.034,0.978-3.589,3.207-2.208,5.036c2.478,3.272-0.594,5.871-0.267,8.769c-0.968,0.483-1.937,0.966-2.907,1.45
		c-0.751-5.759-0.08-11.509,0.118-17.26c0.394-11.276,0.688-22.589-0.499-33.796c-1.112-10.487-1.82-20.995-2.414-31.498
		c-0.924-16.275,0.135-32.607-0.985-48.896c-0.412-5.995-0.222-6.008-6.393-8.121c0,0-0.112-0.062-0.112-0.06
		c-0.182-0.958-0.847-1.278-1.733-1.316l0.042,0.017C205.107,104.825,203.749,100.787,202.392,96.751z M281.585,229.383
		c-2.889-28.482-5.739-56.648-8.633-85.249c-9.869,3.379-19.25,4.923-28.812,5.254c-2.949,0.102-3.565,1.723-2.813,3.863
		c0.911,2.592,1.521,5.129,1.902,7.875c1.404,10.131,1.423,20.345,2.013,30.508c0.654,11.216,1.321,22.514-0.793,33.704
		c-0.472,2.501,1.379,2.716,3.115,3.277C258.838,232.253,270.151,231.702,281.585,229.383z M284.799,224.789
		c0.415,0.282,0.869,0.827,1.177,0.752c0.893-0.213,2.728,1.917,2.494-0.501C288.359,223.882,286.167,223.75,284.799,224.789z
		 M173.457,608.202c-0.166,0.85-0.394,1.514-0.394,2.186c0,0.412,0.351,0.824,0.542,1.243c1.114-0.517,0.797-1.515,0.705-2.364
		C174.275,608.952,173.857,608.682,173.457,608.202z M219.458,727.155c-0.183,0.418-0.364,0.837-0.546,1.255
		c0.422,0.186,0.931,0.593,1.241,0.476c0.299-0.111,0.391-0.77,0.569-1.188C220.305,727.513,219.883,727.334,219.458,727.155z
		 M246.453,503.854c0.92-0.019,1.61-0.359,1.588-1.249c-0.015-0.616-0.591-0.816-1.136-0.471c-0.591,0.372-1.127,0.84-1.681,1.268
		C245.664,503.566,246.105,503.727,246.453,503.854z M173.346,564.021c-0.052-0.186-0.104-0.37-0.16-0.555
		c-0.216,0.062-0.456,0.086-0.628,0.21c-0.056,0.036,0.089,0.345,0.142,0.529C172.915,564.144,173.13,564.082,173.346,564.021z
		 M280.969,137.424c-0.068,0.173-0.228,0.373-0.184,0.517c0.165,0.608,0.462,0.637,0.738,0.072c0.064-0.134-0.01-0.394-0.111-0.531
		C281.355,137.399,281.124,137.439,280.969,137.424z"/>
	<path fill-rule="evenodd" clip-rule="evenodd" fill="#413B4D" d="M161.167,461.669c-0.118-7.5-0.034-15.013-0.388-22.5
		c-1.022-21.509-0.327-42.994,7.623-63.17c6.594-16.73,13.325-33.526,23.423-48.727c10.487-15.793,17.932-33.169,22.799-51.451
		c2.242-8.42,2.607-17.338,3.82-26.031c0.971-0.484,1.939-0.967,2.907-1.45c2.882,5.31-0.024,10.711,0.077,16.066
		c0.095,5.039-2.047,9.862-3.854,14.667c-1.47,3.908-1.599,8.302-3.354,12.21c3.985,4.592-0.766,6.589-2.606,9.678
		c-1.358,2.274-3.119,4.289-3.966,7.022c-2.171,7.004-5.466,13.516-10.585,18.938c-2.718,2.637-5.335,5.099-3.852,9.661
		c0.908,2.802-2.39,3.846-3.79,5.675c-1.885,2.463-1.604,3.994,1.696,4.417l0.007,0.002c-1.331,6.855-5.69,11.695-10.728,16.058
		c-2.084,1.803-3.58,3.578-1.256,6.276c0.595,0.687,0.037,1.059-0.776,1.405c-4.328,1.857-5.554,3.53-5.344,7.239
		c0.108,1.927,1.459,3.652,0.511,5.817c-0.542,1.234-2.891,6.85-4.119,7.243c-4.366,1.389,2.364,4.428-0.961,5.859
		c-0.221-0.195-0.443-0.393-0.667-0.588c0.197,0.222,0.394,0.443,0.594,0.666c-0.104,1.486,0.382,3.542-0.412,4.353
		c-2.845,2.911-1.423,4.318,1.28,5.864c0.518,0.295-0.098,1.322-0.757,1.769c-0.246-0.19-0.486-0.381-0.732-0.571
		c0.19,0.244,0.381,0.489,0.566,0.733c-3.621,6.35-4.748,13.203-4.49,20.45c0.216,6.017,0.511,12.112-0.204,18.061
		c-0.455,3.786,3.868,6.059,1.873,10.24c-1.536,3.214-0.382,6.958,1.404,10.188l0.006,0.003c-1.65,4.329-0.098,8.763-0.428,13.141
		c-0.329,4.342-1.32,8.664,1.524,12.792c1.371,1.986-1.052,4.326-0.917,6.5c0.597,9.717,0.837,19.401,0.529,29.161
		c-0.184,5.727,0.966,11.589,0.794,17.433c-0.154,5.277-0.869,10.518,1.271,15.714c1.045,2.537-2.607,5.672-0.926,7.932
		c3.491,4.704-0.696,11.016,3.771,15.326c0.396,0.382,0.076,2.118-0.462,2.765c-2.809,3.362-0.872,7.094-1.29,10.548
		c-1.041,8.553-0.062,16.546,2.709,24.508c-2.962,6.256,0.671,12.653-0.416,18.989c-0.462,2.691-0.113,5.518-0.132,8.282
		c-0.745,0.272-0.863,0.519-0.333,0.647c0.074,0.019,0.244-0.395,0.37-0.61c1.873,0.395,6.234,0.117,2.787,3.203
		c-3.162,2.832-0.474,5.671-1.917,8.116c-1.743,2.948,3.824,4.863,0.997,8.472c-1.866,2.383,0.789,5.775,0.055,8.806
		c-0.197,0.807,0.351,2.081,0.979,2.739c1.967,2.058,2.143,3.357-0.777,4.785c-2.654,1.299-2.302,3.492,0.457,3.85
		c3.519,0.46,2.697,2.203,1.958,4.149c-1.312,3.455-2.118,6.527,1.949,9.033c1.133,0.701,2.029,3.479,1.567,4.778
		c-2.038,5.695-0.147,10.968,0.964,16.36c-1.383-0.954-2.762-1.908-4.145-2.856c-3.273-4.562-4.784-9.488-5.465-15.222
		c-2.881-24.255-3.116-48.645-4.452-72.975c-1.373-25.062-1.287-50.215-3.322-75.21c-1.573-19.298,0.237-38.657-2.318-57.861
		c0.56-1.546,0.366-3.055-0.228-4.545c0.354-11.13,0.785-22.263-0.887-33.34C161.172,462.657,161.169,462.161,161.167,461.669z"/>
	<path fill-rule="evenodd" clip-rule="evenodd" fill="#3EA434" d="M177.85,722.303c1.383,0.948,2.762,1.902,4.145,2.856
		c10.026,8.271,21.684,13.27,33.873,17.451c13.833,4.747,28.181,6.982,42.472,9.458c8.291,1.436,16.476-0.861,24.622-2.111
		c13.858-2.131,27.669-4.562,41.482-6.964c3.693-0.641,7.4-1.264,10.885-2.869c3.898-1.793,8.043-2.55,12.346-3.104
		c6.727-0.868,12.908-3.909,19.268-6.176c8.191-2.919,14.982-8.455,23.727-12.31c-3.215-1.848-5.391-0.905-7.68-0.21
		c-7.918,2.401-15.898,4.619-23.807,7.051c-2.443,0.752-4.797,1.527-7.371,0.911c5.844-2.789,11.627-5.732,17.564-8.318
		c4.551-1.989,7.688-6.496,13.041-7.088c0.609-0.072,0.07-1.798-0.455-2.672c1.996-2.414,2.721-4.994,2.531-8.295
		c-0.332-5.671,0.203-11.391,0.279-17.093c0.045-3.184,2.436-5.764,1.568-9.335c-2.531-10.371-0.529-21.011-1.041-31.527
		c-0.234-4.804-1.186-9.286-2.082-13.843c-0.609-3.092-3.975-4.933-6.838-4.391c-3.166,0.598-3.746,2.938-3.66,5.665
		c0.057,1.756-0.305,3.683,0.295,5.234c2.691,6.933,2.393,14.243,3.246,21.429c1.994,16.834,3.693,33.683,4.113,50.641
		c-11.312-1.945-22.67-3.504-34.064-4.902c-8.191-1.004-16.533-1.736-24.486-3.651c-12.377-2.985-24.6-6.668-37.127-9.045
		c-3.301-0.629-6.182-1.935-9.07-3.43c-3.854-2.002-6.749-6.207-6.201-9.379c1.059-6.114-0.19-11.971,0.106-17.919
		c0.061-1.231-0.573-2.796,0.54-3.552c4.489-3.055,3.139-7.408,2.858-11.559c3.035-0.153,6.074-0.314,9.112-0.469
		c4.569,1.183,8.892-0.892,13.35-1.219c9.958-0.738,20.145-1.49,29.665-4.229c16.309-4.692,33.359-7.168,48.654-15.173
		c1.99-1.04,4.234-1.625,6.562-1.533c0.514,0.788,1.027,0.881,1.545,0.006c0.994,0.025,1.988,0.056,2.982,0.086
		c0.869,1.453,2.496,2.032,3.229,3.917c3.59,9.205,2.789,19.268,5.871,28.534c-1.289,18.135,2.971,35.942,3.111,53.99
		c0.025,3.109,0.9,5.924,1.908,8.763c-0.125,4.077-0.252,8.146-0.375,12.224c-6.25,4.088-13.57,5.807-20.146,9.236
		c-8.098,4.211-17.205,6.17-25.229,10.652c-16.422,5.406-32.629,11.441-49.739,14.611c-16.32,3.024-32.651,5.438-49.307,4.711
		c-8.03-0.85-15.716-3.258-22.993-6.472c-14.624-6.472-28.985-13.67-41.429-23.817C184.897,733.158,179.562,729.003,177.85,722.303z
		"/>
	<path fill-rule="evenodd" clip-rule="evenodd" fill="#161A1C" d="M407.857,428.301c4.924,11.01,7.822,22.457,7.467,34.605
		c-0.611,3.485-4.305,6.048-3.713,9.649c0.846,5.127,2.596,10.099,3.857,15.167c0.529,2.124,2.354,3.842,0.477,6.619
		c-1.773,2.623,3.174,3.386,3.006,5.628c-0.174,2.321-3.148,4.052-1.979,6.891c0.279,0.665,0.793,1.262,1.295,1.798
		c1.002,1.074,0.967,2.21,0.4,3.451c-1.504,3.266-1.381,6.185,1.551,8.733c0.975,0.844,1.299,2.45,0.77,3.522
		c-2.887,5.837,0.543,12.61-2.826,18.33c-0.598,1.017-0.418,1.836,0.609,2.501c1.592,1.028,1.811,2.802,2.531,4.39
		c3.799,8.345,1.475,17.987,5.754,26.177c-1.982,3.295,2.166,5.609,1.502,8.449c-1.184,5.098,0.004,9.839,1.24,14.648
		c0.33,1.281,0.303,2.549-1.107,3.215c-1.164,0.553-2.008,0.991-1.896,2.672c0.352,5.314-2.826,10.062-2.678,15.394
		c0.041,1.607-0.51,3.067-2.365,3.313c-2.518,0.339-3.236,1.299-2.691,4.027c0.453,2.271-0.609,4.568,1.109,7.007
		c1.57,2.235-0.072,4.951-1.855,6.663c-1.264,1.207-3.545,1.113-4.949,0.024c-2.561-1.989-0.486-4.212,0.486-5.998
		c2.277-4.192,0.832-7.271-2.494-9.846c-4.062-3.141-5.111-7.5-5.277-12.254c-0.088-2.513-0.023-5.031-0.029-7.543
		c-0.162-2.125-0.328-4.242-0.49-6.367c-0.879-0.961-1.691-1.952-1.611-3.368c0.365-0.067,0.729-0.142,1.09-0.209
		c-0.379,0.019-0.76,0.037-1.137,0.061c-0.375-0.196-0.691-0.455-0.955-0.781c0.443-3.005,0.891-6.004,1.336-9.009
		c0.08-3.104,2.352-4.372,5.504-5.302c-3.91-1.41-3.648-1.312-2.918-3.344c0.617-1.724,1.887-2.623,3.078-3.719
		c-8.506-7.501-8.615-7.956-3.602-15.604c-1.416-1.749-3.98,0.049-5.414-1.773c0.283-1.928,0.395-3.923,2.145-5.339
		c0.844-0.684,1.133-1.706,0.461-2.648c-4.254-5.954-4.568-12.955-5.387-19.84c-0.191-1.625-1.498-2.512-3.006-3.004
		c-0.186-0.389-0.186-0.771-0.006-1.158c0.326-2.167,1.133-4.397,0.863-6.49c-0.414-3.213,1.385-7.594-3.695-8.952l-0.014-0.037
		c-0.039-0.621-0.078-1.239-0.119-1.859c-1.547-9.348-3.092-18.688-4.633-28.029c-1.689-7.353-1.096-14.784-0.826-22.208
		c0.033-1,0.314-2.14-0.053-2.982c-5.475-12.521-8.451-26.081-14.318-38.295c-7.779-16.175-15.111-32.714-26.545-46.986
		c-11.232-14.02-21.178-28.99-30.723-44.244c-6.395-10.22-12.05-20.768-17.112-31.655c-2.103-4.523-3.762-9.29-5.185-14.074
		c-0.649-2.195-1.17-4.276-2.583-6.148c-0.89-1.176-1.999-2.765-1.857-4.046c1.018-9.384-4.316-17.544-4.9-26.623
		c-0.229-3.515-0.85-6.914,0.79-10.355c8.464,2.269,12.135,9.523,16.525,15.953c1.532,2.246-1.46,3.487-1.675,5.357
		c-0.139,1.191,0.566,2.505,0.344,3.656c-0.209,1.081-1.44,1.204-2.479,0.88c-1.173-0.364-1.628-1.992-3.321-1.784
		c-1.835,4.731,3.318,7.007,4.033,10.905c0.339,1.86,2.647,0.363,2.71-0.209c0.418-3.881,2.985-4.185,5.96-3.986
		c1.429,0.095,3.412-0.347,3.636,1.68c0.193,1.74-1.408,2.437-2.936,2.888c-0.375,0.11-0.667,0.514-0.991,0.777
		c0.641,1.307,2.598,0.019,3.19,1.992c-2.604,0.639-5.348-0.019-7.901,1.037c-3.521,1.453-5.278,3.888-3.231,6.594
		c2.062,2.733,3.164,4.606,0.856,7.742c-1.078,1.459,0.534,3.242,1.453,4.776c1.841-0.983,1.366-3.377,3.12-4.081
		c1.663-0.668,4.269-1.441,4.687,0.378c1.602,6.959,2.949-1.028,4.266,0.076c0.637-0.097,1.225,0.254,1.043,0.797
		c-2.068,6.191,1.732,11.404,4.025,16.141c2.084,4.299,1.986,9.504,6.119,13.275c3.314,3.024,5.018,7.892,7.164,12.08
		c1.096,2.133,4.408,3.694,4.244,4.905c-0.789,5.925,4.99,7.245,6.914,11.112c0.438,0.88,1.084,2.346,1.988,1.939
		c5.059-2.278,6.613,3.753,10.695,4.027c-0.721,1.783-2.133,0.893-3.092,1.222c-3.152,1.089-3.844,2.923-1.957,5.502
		c4.492,6.131,9.594,11.889,11.314,19.638c0.52,2.338,2.709,1.629,4.332,2.065c2.469,0.661,4.584-0.796,7.188-0.558
		c6.568,0.602,10.533,6.093,16.58,7.438c3.277,0.728,2.877,5.051,5.24,7.051c3.006,2.546,2.557,6.213,2.539,9.672
		c5.135,1.808,1.889,5.227,1.545,8.082c-0.059,0.495-0.412,1.354-0.291,1.421c6.656,3.636,2.186,12.802,8.309,16.638
		C406.738,428.454,407.355,428.285,407.857,428.301z M370.15,384.437c0.615-0.319,2.014-0.091,1.836-1.469
		c-0.217-1.708-1.861-2.089-3.188-2.418c-0.988-0.245-1.863,0.388-1.844,1.603C366.979,384.144,368.404,384.374,370.15,384.437z"/>
	<path fill-rule="evenodd" clip-rule="evenodd" fill="#3EA434" d="M339.918,479.898c-3.801,1.73-7.846,1.519-11.873,1.516
		c-2.768-0.004-5.646-0.392-8.281,0.224c-9.33,2.165-18.829,1.848-28.169,1.417c-7.321-0.336-14.74,0.684-21.919-0.758
		c-3.011-0.604-5.959-0.425-8.902-0.91c-3.911-9.472-4.03-19.317-2.968-29.299c0.547-5.151,1.741-10.419,1.15-15.456
		c-0.715-6.111,0.311-11.878,1.389-17.656c1.922-10.3,5.638-20.427,6.241-30.765c0.732-12.469,4.291-24.099,6.835-36.073
		c1.549-7.292,4.048-14.321,4.371-22.024c0.364-8.764,0.69-17.905,5.783-25.77c0.479,1.155,1.538,2.416,1.349,3.447
		c-1.608,8.805,3.423,16.507,4.009,24.946c0.146,2.14,1.606,4.187,2.456,6.279c-0.752,2.843,0.229,5.444,1.096,8.07
		c1.022,3.093,2.032,6.19,2.98,9.304c2.968,9.72,5.277,19.732,10.038,28.744c2.611,4.945,4.675,9.898,5.941,15.291
		c0.449,1.928,1.238,3.803,2.076,5.608c4.184,9.032,8.232,18.117,11.363,27.582c0.939,2.838,1.662,5.757,2.768,8.531
		C332.553,454.471,337.264,466.848,339.918,479.898z"/>
	<path fill-rule="evenodd" clip-rule="evenodd" fill="#847186" d="M395.139,524.131c-0.18,0.388-0.18,0.77,0.006,1.158
		c0.311,5.178,0.412,10.388,0.967,15.541c1.562,14.508,1.5,29.219,5.24,43.468c0.209,3.571-0.957,7.352,1.596,10.566
		c0.264,0.332,0.58,0.591,0.955,0.782c0.004,0,0.047,0.153,0.047,0.153c-0.08,1.416,0.732,2.407,1.615,3.374
		c-1.062,1.989-0.604,4.157-0.734,6.257c-2.172,0.037-4.354,0.067-6.525,0.098c-1.658-2.105-3.875-1.422-5.996-1.194l-0.336-0.142
		c-0.135-1.126-0.508-1.071-1.047-0.215c-3.195-0.536-5.969,1.711-9.131,1.392c-0.342-0.229-0.707-0.302-1.115-0.229
		c-0.498-0.609-1.096-0.941-1.908-0.72c-1.014,0.055-2.025,0.116-3.039,0.172c-0.52-0.233-1.043-0.468-1.568-0.695
		c-2.098-2.895-0.273-7.218-3.318-10.08c-4.225,3.756-1.908,7.992-1.807,11.927c-3.871,1.386-7.742,2.765-11.613,4.15
		c-0.078-2.685-0.059-5.382-0.293-8.054c-0.078-0.918-0.84-1.915-1.99-1.62c-0.576,0.148-1.279,0.899-1.408,1.49
		c-0.684,3.092-1.201,6.226-1.773,9.342c-2.814,0.695-5.633,0.529-8.461,0.067c-0.844-1.318-0.992-2.802-1.133-4.322
		c-1.539-16.227-3.094-32.451-3.232-48.763c-0.111-13.319-1.77-26.546-1.877-39.883c-0.055-6.421-1.344-12.838-0.045-19.285
		c2.469-2.154,4.873-4.063,8.59-3.935c2.119,0.074,4.373-1.059,6.41-1.988c7.395-3.378,14.52-7.334,22.676-8.855
		c2.348-0.439,4.688-1.475,6.455-3.577c1.498-1.786,3.775-2.42,6.197-1.752c1.541,9.344,3.086,18.685,4.637,28.032
		c-0.83,0.678-1.17,1.321,0.115,1.859l0.014,0.037C391.986,514.07,392.771,519.241,395.139,524.131z"/>
	<path fill-rule="evenodd" clip-rule="evenodd" fill="#C1E829" d="M283.575,304.344c-5.093,7.865-5.419,17.006-5.783,25.77
		c-0.323,7.704-2.822,14.732-4.371,22.024c-2.544,11.974-6.103,23.604-6.835,36.073c-0.604,10.338-4.319,20.465-6.241,30.765
		c-1.078,5.778-2.104,11.545-1.389,17.656c0.591,5.037-0.604,10.305-1.15,15.456c-1.062,9.981-0.943,19.827,2.968,29.299
		c-3.102-0.13-6.43,1.276-9.162-1.349c0.318-1.62,2.08-3.036,0.708-4.901c-5.799,1.861-7.877,0.735-9.592-5.18
		c-1.845-6.343-1.856-12.955-2.419-19.433c-0.782-8.979-0.9-17.969,0.658-27.039c1.651-9.603,3.457-19.217,4.646-28.878
		c1.549-12.569,4.718-24.666,9.392-36.307c5.996-14.933,11.304-29.979,14.723-45.77c3.447-15.939,1.034-31.468-1.39-47.106
		c-0.165-1.073-0.721-1.844-1.942-1.8c-1.096,0.041-1.989,0.6-2.306,1.606c-0.372,1.185-0.722,2.472-0.645,3.688
		c0.352,5.812-1.197,11.438-1.538,17.188c-0.367,6.244-0.758,12.61-2.98,18.514c-4.502,11.961-9.637,23.69-13.987,35.707
		c-4.175,11.536-8.301,23.159-11.314,35.032c-3.011,11.876-4.416,24.151-6.904,36.173c-2.198,10.61-2.475,21.235-1.673,31.971
		c0.257,3.5,0.731,7.13,0.122,10.521c-1.238,6.888,0.34,14.898-6.89,19.727c-5.229,0.351-10.136-1.371-15.161-2.322
		c1.146-2.487,2.87-4.637,3.517-7.444c2.186-9.514,5.105-18.999,5.197-28.744c0.179-18.59,3.929-36.681,6.989-54.832
		c1.562-9.257,3.214-18.73,7.291-27.44c2.007-4.296,3.939-8.632,5.854-12.974c3.203-7.26,6.602-14.411,10.247-21.474
		c3.504-6.792,7.456-13.582,7.931-21.544c0.121-2.026,0.641-3.941,1.056-5.907c1.869-8.822,3.588-17.607,3.739-26.769
		c0.075-4.712-1.79-9.311-0.475-13.991c8.439,2.631,12.459,1.762,16.88-3.646c0,0-0.122,0.205-0.122,0.204
		c0.548-0.361,1.101-0.72,1.649-1.079c4.01-1.115,5.838-0.093,6.013,4.561c0.496,13.099,3.348,26.019,3.144,39.203
		C281.956,294.504,282.428,299.479,283.575,304.344z"/>
	<path fill-rule="evenodd" clip-rule="evenodd" fill="#C1E829" d="M272.928,643.257c0.28,4.15,1.631,8.504-2.858,11.559
		c-1.113,0.756-0.479,2.32-0.54,3.552c-0.297,5.948,0.952,11.805-0.106,17.919c-0.548,3.172,2.347,7.377,6.201,9.379
		c2.889,1.495,5.77,2.801,9.07,3.43c12.527,2.377,24.75,6.06,37.127,9.045c7.953,1.915,16.295,2.647,24.486,3.651
		c11.395,1.398,22.752,2.957,34.064,4.902c0.129,0.929,0.596,1.495,1.588,1.515c0.525,0.874,1.064,2.6,0.455,2.672
		c-5.354,0.592-8.49,5.099-13.041,7.088c-5.938,2.586-11.721,5.529-17.564,8.318c-11.697,2.002-23.391,4.033-35.102,5.968
		c-1.164,0.189-2.432-0.229-3.643-0.357c-0.891-1.447-2.307-1.699-3.873-1.848c-6.186-0.566-12.383-1.065-18.541-1.858
		c-9.948-1.281-19.689-3.695-29.231-6.663c-10.215-3.184-19.64-8.486-29.887-11.688c-11.458-3.584-13.374-5.998-14.267-18.172
		c-1.056-14.391-2.617-28.7-4.759-42.979c-0.759-5.044-4.532-8.936-4.299-14.12c4.387,0.998,8.879,1.632,12.922,3.812
		c0.562,2.678,1.389,5.339,1.642,8.055c1.521,16.44,2.596,32.912,5.246,49.267c0.958,5.894,3.521,8.399,8.541,9.668
		c6.313,1.602,12.622,3.233,18.979,4.643c9.492,2.101,18.809,4.933,28.779,4.606c13.525-0.444,27.071-0.277,40.61-0.271
		c2.918,0.005,5.75,0.166,7.873-2.501c-1.703-1.386-3.668-1.662-5.613-2.137c-18.764-4.568-38.163-6.09-56.675-11.865
		c-1.639-0.518-3.499-0.622-5.229-0.498c-7.056,0.51-6.65,0.887-8.916-6.983c-3.066-10.646-3.211-21.749-4.299-32.691
		c-0.615-6.208,1.49-8.966,7.401-11.201c1.599-0.608,2.582-1.417,2.901-3.054C265.889,643.361,269.406,643.312,272.928,643.257z"/>
	<path fill-rule="evenodd" clip-rule="evenodd" fill="#3EA434" d="M254.464,250.31c-1.315,4.68,0.55,9.278,0.475,13.991
		c-0.151,9.161-1.87,17.947-3.739,26.769c-0.415,1.966-0.935,3.881-1.056,5.907c-0.475,7.962-4.427,14.752-7.931,21.544
		c-3.646,7.063-7.044,14.213-10.247,21.474c-1.915,4.341-3.848,8.678-5.854,12.974c-4.077,8.71-5.729,18.184-7.291,27.44
		c-3.061,18.151-6.811,36.242-6.989,54.832c-0.092,9.745-3.012,19.23-5.197,28.744c-0.646,2.808-2.37,4.957-3.517,7.444
		c-4.488-1.047-8.861-2.783-13.603-2.296c-0.384-0.406-0.775-0.816-1.163-1.226c0,0-0.166,0.012-0.166,0.009l0.677,0.01l0.666-0.104
		c0.492-0.53,1.423-1.069,1.406-1.58c-0.354-12.078,1.013-24.209-0.971-36.247c-0.688-4.163-0.513-8.227,0.466-12.438
		c0.994-4.268-0.071-8.731,0.36-13.233c1.473-15.385,4.913-30.007,12.192-43.725c2.063-3.884,3.238-8.237,4.821-12.374
		c0.055-0.978,0.111-1.954,0.166-2.931l-0.067,0.046c1.046,0.015,1.996-0.26,2.58-1.182c3.7-5.838,7.523-11.608,11.033-17.56
		c3.265-5.533,6.909-10.954,7.701-17.588c1.555-1.25,1.326-2.999,1.312-4.686c6.373-14.994,10.724-30.383,9.135-46.93
		c-0.016-0.509-0.03-1.019-0.043-1.528c1.163-1.396,1.331-2.899,0.486-4.51c1.614-1.151,1.011-2.838,1.059-4.369
		c2.707,1.701,5.873,1.412,8.824,2.037c1.187,1.025,2.722,0.666,4.07,1.032C254.057,250.055,254.464,250.31,254.464,250.31z"/>
	<path fill-rule="evenodd" clip-rule="evenodd" fill="#847186" d="M333.045,614.267c-1.949,0.044-3.898,0.08-5.846,0.123
		c-2.037-4.809-0.719-9.987-1.59-14.901c-2.109-11.866-2.123-23.873-2.869-35.838c-0.215-3.484,0.217-7.074-1.277-10.4
		c-0.445-0.985-1.201-1.668-2.322-1.397c-1.131,0.271-1.781,1.423-1.527,2.303c1.072,3.695,1.072,7.464,0.926,11.195
		c-0.334,8.467-0.365,16.945-0.643,25.395c-0.221,6.822,1.959,13.959-1.539,20.627c-1.047,1.996,1.23,3.018,2.111,4.428
		c-3.088,0.086-6.178,0.166-9.27,0.252c-0.262-8.214-0.027-16.489-0.92-24.636c-0.932-8.474-0.715-16.983-1.676-25.425
		c-0.895-7.857,0.93-16.134-3.386-23.603c-1.478,2.733-2.587,5.437-2.987,8.244c-1.592,11.17-0.486,22.481-1.495,33.688
		c-0.469,5.173,1.669,10.536-1.164,15.542c-1.975-0.381-2.069-1.988-2.106-3.479c-0.425-16.577-1.999-33.048-3.769-49.532
		c-1.145-10.646-2.26-21.33-2.383-32.088c-0.067-6.224-1.115-6.882-7.444-7.87c1.54-1.75,3.581-1.567,5.566-1.346
		c10.053,1.108,19.875-0.302,29.624-2.604c0.57,3.836,2.377,7.432,1.984,11.483c0.578-3.91,1.178-7.743,0.492-11.606
		c4.588-1.109,9.172-2.218,13.76-3.325c2.564,5.431,2.422,11.237,1.99,16.969c-0.668,8.947-1.182,18.054-0.85,26.848
		c0.426,11.256,0.08,22.444,0.125,33.67c0.023,6.478-2.139,12.925-0.729,19.316c1.236,5.584,0.5,10.924-0.379,16.354
		C333.316,613.189,333.18,613.73,333.045,614.267z"/>
	<path fill-rule="evenodd" clip-rule="evenodd" fill="#3EA434" d="M231.295,75.922c1.354-4.88,0.644-9.898,0.65-14.815
		c0.003-4.675,1.732-6.548,6.19-7.272c2.729-0.443,5.327-0.934,8.049-0.364c-0.191,1.329-0.388,2.657-0.579,3.985
		c-1.5,1.004-3.571,2.374-0.03,2.992c6.083,1.059,12.364-0.659,18.491,1.271c1.927,0.606,3.798-0.827,4.569-2.692
		c-4.234-4.674-10.197-3.419-15.407-4.757c-0.067-0.345-0.197-0.67-0.388-0.977c1.147-1.581,3.153-2.05,4.617-1.886
		c4.896,0.545,9.779,0.33,14.665,0.463c2.128,0.059,3.341,1.966,5.078,2.846c0.147,0.964,0.294,1.927,0.442,2.893
		c-0.012,0.843,0.438,1.407,1.115,1.829c-1.512,7.755,0.064,10.667,7.479,13.333c1.48,0.532,3.069,0.795,3.008,2.695
		c-0.188,5.803,2.038,11.293,2.118,17.042c0.062,4.25-2.325,7.448-6.515,8.66c-2.863,0.83-5.807,1.388-8.723,2.022
		c-3.008,0.654-4.408,2.35-5.23,5.49c-1.787,6.821-0.626,13.385,0.566,20.026c0,2.213,0,4.429,0,7.1
		c-5.831,1.632-11.94,0.162-17.98,0.34c-0.869-2.343-2.38-4.657-2.488-7.034c-0.425-9.351-0.579-18.72-0.505-28.082
		c0.074-9.44,3.405-13.65,12.42-15.527c3.466-0.72,6.712-1.942,10.062-2.915c1.048-0.443,2.297-0.56,3.193-2.394
		c-5.133,0.315-9.979-0.637-14.578,1.703c-6.676,0.841-13.35,1.492-20.111,1.484c-2.953-0.005-4.852-0.976-6.57-4.996
		c-1.49,7.563-4.107,13.08-1.212,19.063c1.2,2.487-0.272,4.89-0.663,7.316c-2.389-2.725-4.381-5.618-7.726-7.65
		c-5.271-3.201-4.61-11.906,0.377-15.395C227.848,80.206,231.783,80.098,231.295,75.922z"/>
	<path fill-rule="evenodd" clip-rule="evenodd" fill="#3EA434" d="M208.21,634.568c-0.233,5.185,3.54,9.076,4.299,14.12
		c2.142,14.279,3.703,28.589,4.759,42.979c0.893,12.174,2.809,14.588,14.267,18.172c10.247,3.201,19.672,8.504,29.887,11.688
		c9.542,2.968,19.283,5.382,29.231,6.663c6.157,0.793,12.354,1.292,18.541,1.858c1.566,0.148,2.982,0.4,3.873,1.848
		c-11.09,2.384-22.467,3.301-33.544,1.989c-13.54-1.595-27.057-4.188-40.179-8.301c-5.917-1.853-11.927-3.411-17.895-5.105
		c-0.357-0.345-0.658-0.867-1.076-0.996c-9.077-2.741-14.126-10.567-20.708-16.441c-0.641-0.566-1.085-1.823-0.974-2.674
		c0.609-4.605-1.083-8.922-1.791-13.3c-0.987-6.096-0.371-12.382-2.363-18.325c-1.369-5.585-1.815-11.011-0.901-16.939
		c1.028-6.687-0.572-13.7-0.083-20.598c0.04-0.597,0.083-0.998,1.247-1.367C198.937,631.299,203.574,632.931,208.21,634.568z"/>
	<path fill-rule="evenodd" clip-rule="evenodd" fill="#161A1C" d="M249.99,249.023c-2.951-0.625-6.117-0.335-8.824-2.037
		c-2.567-0.833-3.44,1.384-3.792,2.834c-0.357,1.472,1.589,1.346,2.733,1.535c0.845,1.61,0.677,3.113-0.486,4.51
		c-0.702,0.024-1.403,0.015-2.101,0.081c-0.914,0.086-2.01,0.278-1.714,1.474c0.216,0.873,1.143,0.306,1.777,0.219
		c0.688-0.096,1.385-0.164,2.08-0.246c1.589,16.546-2.762,31.936-9.135,46.93c-1.699,0.208-3.631-0.455-5.465,1.012
		c1.692,1.499,2.926,2.585,4.153,3.673c-0.792,6.635-4.437,12.055-7.701,17.588c-3.51,5.952-7.333,11.722-11.033,17.56
		c-0.584,0.922-1.534,1.197-2.58,1.182c-0.209-1.963-0.02-3.863,1.072-5.561c1.938-3.013,1.957-6.365,1.809-9.755
		c1.959-1.07,4.483-1.576,4.535-4.547c1.014-0.072,2.121-0.182,2.649-1.113c0.537-0.956,1.77-2.347,0.037-3.068
		c-1.278-0.531-2.351,0.477-2.56,1.957c-0.102,0.741-0.07,1.5-0.098,2.25c-2.849,0.179-4.494,1.561-4.549,4.537
		c-4.677,0.613-7.558,5.496-13.275,5.4c1.136-3.028,0.293-5.765-0.459-8.518c5.116-5.422,8.411-11.934,10.582-18.938
		c0.847-2.733,2.607-4.748,3.966-7.022c1.841-3.089,6.592-5.085,2.606-9.678c1.756-3.909,1.885-8.302,3.354-12.21
		c1.808-4.805,3.949-9.627,3.854-14.667c-0.102-5.355,2.805-10.757-0.077-16.066c-0.327-2.897,2.744-5.496,0.267-8.769
		c-1.381-1.829,1.174-4.058,2.208-5.036c2.957-2.786,2.846-5.199,1.097-8.407c-0.652-1.202-0.517-2.939-0.443-4.415
		c0.28-5.196,3.215-7.83,8.225-7.69c2.108,0.061,2.084,1.726,2.65,3.043c2.334,5.445,4.648,10.9,7.105,16.292
		c1.389,3.055,1.57,8.017,7.327,5.062c0.914-0.468,1.596,0.767,1.755,1.866C251.992,243.378,251.264,246.245,249.99,249.023z"/>
	<path fill-rule="evenodd" clip-rule="evenodd" fill="#3EA434" d="M297.983,325.403c1.737-6.538-2.094-12.24-2.839-18.415
		c-0.289-2.425-1.757-4.711-0.122-8.396c2.253,7.8,5.335,14.354,7.647,21.119c2.905,8.495,6.065,16.834,9.733,25.017
		c2.447,5.464,3.986,11.264,6.924,16.592c7.826,14.195,16.021,28.27,22.518,43.076c3.227,7.353,6.613,14.744,9.479,22.291
		c4.34,11.416,8.971,22.728,12.428,34.482c0.926,3.153,1.391,6.358,2.193,9.508c1.658,6.533-1.227,10.308-7.947,10.271
		c-3.666-0.019-7.328-0.837-10.992-1.296c-0.566-8.272-2.523-16.289-4.533-24.301c-2.363-9.434-5.941-18.528-8.527-27.833
		c-3.41-12.263-8.707-23.781-12.34-35.916c-2.143-7.159-6.234-13.695-8.811-20.57C307.191,356.092,300.995,341.229,297.983,325.403z
		"/>
	<path fill-rule="evenodd" clip-rule="evenodd" fill="#847186" d="M227.835,608.503c-6.891,2.728-13.344,0.143-19.862-1.656
		c-1.558-5.32-1.665-10.432-0.883-16.146c1.086-7.931-0.203-16.231-0.839-24.341c-0.812-10.413-1.748-20.807-1.677-31.269
		c0.018-2.697,0.006-5.32-1.234-8.066c-0.877-1.934-0.663-6.73-0.346-6.916c5.887-3.454,2.895-8.884,3.344-13.459
		c0.226-2.241,0.203-4.511,0.29-6.767c7.411,1.921,14.82,3.843,22.229,5.764c-1.108,0.566-2.623,1.059-2.192,2.607
		c0.982,3.519,0.499,6.904-0.061,10.427c-0.623,3.903-1.571,8.454-0.685,11.761c2.488,9.249,1.229,18.504,1.75,27.71
		c0.917,16.169-1.204,32.433,1.225,48.577C229.018,607.536,228.543,608.121,227.835,608.503z"/>
	<path fill-rule="evenodd" clip-rule="evenodd" fill="#161A1C" d="M231.295,75.922c0.487,4.175-3.447,4.283-5.615,5.796
		c-4.987,3.489-5.647,12.194-0.377,15.395c3.345,2.032,5.337,4.925,7.726,7.65c0.733,0.91,1.463,1.822,2.195,2.731
		c-0.302,8.727,1.024,17.191,4.096,25.372l0.172,0.505c-0.198,3.315,2.001,6.208,1.619,9.592c-0.249,2.209,0.283,4.62-2.593,5.622
		c-2.142,0.748-1.899,2.68-2.004,4.427c-0.058,0.991,0.034,2.134-0.418,2.937c-1.733,3.061-1.771,3.402,0.944,5.556
		c-5.031,1.012-5.985,4.468-4.627,8.366c1.06,3.033,0.149,4.749-2.266,6.302c2.236,3.355,5.069,2.219,7.928,1.46
		c0.47-0.125,1.413,0.583,1.751,1.138c0.472,0.774-0.301,1.243-0.921,1.643c-4.436,2.873-4.432,2.876-1.643,8.119
		c-2.711,0.894-5.13,3.356-7.92,0.422c-1.778-1.872-6.167,0.353-6.132-4.96c0.018-2.874-6.626-5.583-0.208-8.989
		c-2.576-1.113-1.103-3.776-1.659-4.888c-4.815-9.555-2.068-19.657-2.856-29.435c-0.506-6.248-0.013-12.568-0.154-18.851
		c-0.129-5.525-0.561-11.027-4.723-15.354c-1.342-1.397-1.28-3.203-1.294-4.968l-0.021,0.021c1.572-0.001,2.948-0.61,4.252-1.406
		c3.611-2.206,3.866-3.436,0.561-5.976c-2.473-1.9-4.064-3.05-1.854-6.585c1.798-2.87-1.446-4.782-3.564-6.354
		c0.678-3.416,6.721-3.977,4.178-8.792c-0.348-0.661,0.834-1.792,1.825-2.121c2.278-0.748,3.751,2.777,6.86,0.634
		c3.399-2.342,3.164,2.539,4.827,3.892C229.942,75.283,230.652,75.561,231.295,75.922z M231.713,147.181
		c-0.547,0.373-1.144,0.695-1.633,1.134c-0.466,0.414-0.38,0.993,0.209,1.15c1.056,0.282,1.788-0.312,2.148-1.253
		C232.512,148.021,232.034,147.618,231.713,147.181z"/>
	<path fill-rule="evenodd" clip-rule="evenodd" fill="#413B4D" d="M297.983,325.403c3.012,15.825,9.208,30.688,14.81,45.63
		c2.576,6.875,6.668,13.411,8.811,20.57c3.633,12.134,8.93,23.653,12.34,35.916c2.586,9.305,6.164,18.399,8.527,27.833
		c2.01,8.012,3.967,16.028,4.533,24.301c-2.365,0.08-4.729,0.163-7.09,0.246c-2.65-13.051-7.361-25.428-12.264-37.752
		c-1.105-2.774-1.828-5.693-2.768-8.531c-3.131-9.465-7.18-18.55-11.363-27.582c-0.838-1.806-1.627-3.681-2.076-5.608
		c-1.266-5.393-3.33-10.346-5.941-15.291c-4.761-9.012-7.07-19.023-10.038-28.744c-0.948-3.114-1.958-6.211-2.98-9.304
		c-0.867-2.626-1.848-5.227-1.096-8.07c1.958-1.016,1.096-2.911,1.564-4.347C294.024,331.387,291.758,325.911,297.983,325.403z"/>
	<path fill-rule="evenodd" clip-rule="evenodd" fill="#161A1C" d="M271.462,128.705c-1.192-6.641-2.354-13.205-0.566-20.026
		c0.822-3.14,2.223-4.835,5.23-5.49c2.916-0.634,5.859-1.192,8.723-2.022c4.189-1.212,6.576-4.409,6.515-8.66
		c-0.08-5.749-2.307-11.238-2.118-17.042c0.062-1.899-1.527-2.163-3.008-2.695c-7.414-2.666-8.99-5.578-7.479-13.335
		c-0.013-0.83-0.395-1.433-1.115-1.827c-0.148-0.966-0.295-1.929-0.442-2.893c3.607-0.688,3.841-2.918,2.186-5.508
		c-0.911-1.429-2.607-2.371-2.284-4.453c1.822-1.339,3.35,0.163,4.94,0.595c4.991,1.357,5.939,2.355,5.305,7.091
		c-0.252,1.918,0.469,3.234,0.77,4.849c0.832,4.455,3.824,5.431,7.501,6.22c7.358,1.577,7.312,1.674,7.759,9.59
		c0.055,0.944,0.277,2.341,0.905,2.716c4.403,2.626,3.042,6.069,2.013,9.867c-1.083,4.019-2.623,8.042-0.618,12.476
		c1.124,2.484-0.649,4.791-2.83,6.394c-1.397,1.03-3.3,1.338-4.279,2.976l-0.474,0.34l-0.586-0.019
		c-2.469,0.541-4.646,1.661-6.832,3.359c1.224,1.461,5.767,0.256,3.002,4.991c-1.761,3.022-2.702,7.362-2.807,11.449
		c-0.097,3.595-2.31,6.104-5.854,6.883c-3.358,0.739-6.505,0.566-7.803-3.638C276.295,127.914,273.516,129.097,271.462,128.705z"/>
	<path fill-rule="evenodd" clip-rule="evenodd" fill="#161A1C" d="M381.795,605.369c3.162,0.319,5.936-1.928,9.131-1.392
		c0.33,0.166,0.678,0.24,1.047,0.215l0.336,0.142c1.131,1.527,2.906,1.121,4.432,1.472c-0.928,2.524-2.047,5.007-2.734,7.593
		c-0.857,3.221-2.029,5.308-6.004,4.279c-2.008-0.523-3.135,0.967-3.203,3.048c-0.994-0.03-1.988-0.061-2.982-0.086
		c-0.514-0.006-1.031-0.006-1.545-0.006c-2.328-0.092-4.572,0.493-6.562,1.533c-15.295,8.005-32.346,10.48-48.654,15.173
		c-9.52,2.739-19.707,3.491-29.665,4.229c-4.458,0.327-8.78,2.401-13.35,1.219c1.868-2.105,3.907-4.088,5.551-6.354
		c1.189-1.639,2.583-2.445,4.438-2.168c2.647,0.4,4.799-2.518,7.894-0.505c2.111,1.373,2.63-3.036,5.715-2.832
		c3.539,0.239,6.05-4.834,10.609-3.061c0.924,0.363,0.992-1.263,0.816-2.298c-0.205-1.206-0.49-2.825,1.318-2.881
		c1.598-0.043,3.584,1.718,3.24,2.549c-1.637,4.009,2.611,3.012,3.572,4.674c0.309-3.564,5.432-2.623,5.727-6.016
		c0.137-1.613-1.344-3.683,1.145-4.446c2.471-0.764,3.393,1.423,4.682,2.95c0.572,0.677,1.715,0.867,2.598,1.287
		c0.234,0.646,0.463,1.293,0.689,1.938c0.191-0.142,0.518-0.258,0.543-0.425c0.129-0.837-0.42-1.293-1.084-1.644
		c2.031-3.337,6.385-3.812,8.623-6.946c0.236-0.332,1.697-0.345,1.98,0c4.156,5.031,7.463,1.866,10.9-0.954
		c0.713-0.579,1.754-0.758,2.643-1.12l-0.008-0.013c0.516,1.028,1.027,1.034,1.537-0.006l-0.027,0.024
		c1.463-0.013,3.139,0.265,4.223-0.807c3.045-2.999,6.74-4.704,10.664-6.139C380.785,607.32,381.213,606.132,381.795,605.369z"/>
	<path fill-rule="evenodd" clip-rule="evenodd" fill="#847186" d="M248.5,508.726c-4.421-0.877-5.814,3.018-5.319,5.308
		c1.521,7-0.197,13.737-0.326,20.578c-0.209,11.034,0.166,22.088-0.209,33.109c-0.382,11.263,0.122,22.519-0.561,33.787
		c-0.253,4.181-1.27,9.015,2.271,12.74c-3.478,0.875-6.316-2.161-9.746-1.602c-0.646-6.354-1.386-12.696-1.922-19.063
		c-2.461-29.132-4.6-58.276-2.603-87.542c0.583-0.12,1.167-0.24,1.75-0.363c0.56,0.413,1.12,0.825,1.679,1.238
		c0.996,0.062,1.997,0.126,2.995,0.188c1.413,2.072,2.99,1.579,4.615,0.292c2.493-0.11,4.994-0.222,7.487-0.332
		c0.019,0.409,0.154,0.77,0.418,1.084C248.854,508.341,248.678,508.535,248.5,508.726z"/>
	<path fill-rule="evenodd" clip-rule="evenodd" fill="#413B4D" d="M206.628,499.884c-0.087,2.256-0.064,4.525-0.29,6.767
		c-0.449,4.575,2.543,10.005-3.344,13.459c-0.317,0.186-0.531,4.982,0.346,6.916c1.24,2.746,1.252,5.369,1.234,8.066
		c-0.071,10.462,0.864,20.855,1.677,31.269c0.636,8.109,1.925,16.41,0.839,24.341c-0.782,5.714-0.675,10.825,0.883,16.146
		c-1.871-0.678-3.657-1.349-5.729-0.32c-1.517,0.752-2.89,0.019-3.776-1.447c-1.089-8.762-2.85-17.45-2.732-26.36
		c0.034-2.377,1.373-5.776-2.926-6.324c0.037-0.702,0.07-1.404,0.104-2.105c1.379,0,2.714-0.499,2.688-1.965
		c-0.095-5.505,0.906-11.096-0.502-16.49c-1.053-4.033-1.09-7.899,0.074-11.822c0.887-2.975,0.569-5.967,0.413-8.966
		c-0.1-1.811-1.253-2.604-2.943-2.771c-0.678-10.369,1.194-20.826-1.287-31.159c-0.698-2.906,1.16-4.202,3.979-2.952
		C199.19,495.868,202.872,497.959,206.628,499.884z"/>
	<path fill-rule="evenodd" clip-rule="evenodd" fill="#847186" d="M271.341,614.58c-3.746-16.108-5.298-32.357-3.959-48.916
		c0.52-6.41-0.335-12.912-0.249-19.372c0.172-12.949,0.562-25.893,0.862-38.841c4.145-0.093,8.288-0.185,12.433-0.28
		c-2.023,14.86-0.745,29.878-1.959,44.725c-1.262,15.426-0.77,30.764-0.495,46.146c0.095,5.487,0.631,10.967,0.97,16.447
		C276.406,614.52,273.876,614.55,271.341,614.58z"/>
	<path fill-rule="evenodd" clip-rule="evenodd" fill="#847186" d="M261.499,509.538c-0.563,20.049-0.702,40.092-0.338,60.153
		c0.142,8.036,1.13,15.985,1.145,24.009c0.006,4.846-2.854,9.674,0.32,14.644c1.354,2.13-1.81,2.407-2.881,3.534
		c-1.726,1.822-2.647-0.1-3.479-1.072c-2.223-2.592-2.738-5.898-3.005-9.119c-1.274-15.246-3.78-30.388-4.022-45.714
		c-0.217-13.751-0.233-27.507-0.375-41.255c-0.018-1.998-0.236-3.996-0.363-5.992c0.179-0.19,0.354-0.385,0.529-0.578
		c2.106,0.646,4.188,1.114,5.943-0.813C257.145,508.066,259.32,508.807,261.499,509.538z"/>
	<path fill-rule="evenodd" clip-rule="evenodd" fill="#C1E829" d="M235.224,107.494c-0.732-0.909-1.462-1.821-2.195-2.731
		c0.391-2.427,1.863-4.829,0.663-7.316c-2.896-5.983-0.278-11.5,1.212-19.063c1.719,4.02,3.617,4.991,6.57,4.996
		c6.762,0.008,13.436-0.643,20.114-1.484c1.818,1.206,3.73,0.814,5.605,0.225c2.012-0.633,3.929-0.636,5.776,0.467
		c-3.35,0.973-6.596,2.195-10.062,2.915c-9.015,1.877-12.346,6.087-12.42,15.527c-0.074,9.362,0.08,18.731,0.505,28.082
		c0.108,2.377,1.619,4.69,2.488,7.034c-4.92,0.391-9.518-0.876-13.99-2.774c0,0-0.172-0.505-0.167-0.502
		c1.27-2.433,1.53-4.941,1.651-7.744C241.259,118.392,238.042,113.067,235.224,107.494z"/>
	<path fill-rule="evenodd" clip-rule="evenodd" fill="#161A1C" d="M197.142,605.603c0.034,2.254,0.153,4.415-1.253,6.509
		c-2.136,3.172-2.84,6.725-2.25,10.622c0.465,3.085-3.563,5.518-6.5,4.15c-8.421-3.929-10.702-14.729-4.624-21.656
		c0.954-1.084,2.081-1.269,3.343-1.281c2.267-0.024,4.531-0.024,6.798-0.037C193.795,605.405,195.52,605.375,197.142,605.603z"/>
	<path fill-rule="evenodd" clip-rule="evenodd" fill="#413B4D" d="M327.947,281.442c4.488,7.712,9.365,15.229,13.357,23.189
		c4.613,9.195,11.637,16.775,16.346,25.847c0.314,0.61,0.193,1.448,0.277,2.175c-3.352-1.271-7.143-1.744-8.123-6.342
		c-0.572-2.688-5.676-2.031-5.092-6.023c-5.369-3.369-6.406-9.005-7.715-14.547c-0.5-2.106-1.742-3.367-3.732-4.844
		c-2.25-1.668-2.934-5.69-6.268-7.148c-0.207-0.091-0.16-0.897-0.137-1.367c0.357-6.766,0.365-6.766-6.924-8.054
		C323.166,283.164,325.557,282.302,327.947,281.442z"/>
	<path fill-rule="evenodd" clip-rule="evenodd" fill="#161A1C" d="M188.352,467.907c0.388,0.409,0.779,0.819,1.163,1.226
		c0.142,0.738,0.161,1.523,0.444,2.197c1.336,3.189,3.208,6.234,4.006,9.545c0.871,3.603-3.718,5.84-2.919,9.63
		c-7.368,1.288-9.395-4.692-12.836-8.534c-0.406-0.452-0.634-1.761-0.342-2.038c2.69-2.562,0.797-5.652,1.093-8.461
		c0.449-4.268,1.154-4.834,5.684-4.089C185.876,467.583,187.118,467.734,188.352,467.907z"/>
	<path fill-rule="evenodd" clip-rule="evenodd" fill="#161A1C" d="M194.537,668.743c1.992,5.943,1.376,12.229,2.363,18.325
		c0.708,4.378,2.4,8.694,1.791,13.3c-0.111,0.851,0.333,2.107,0.974,2.674c6.582,5.874,11.631,13.7,20.708,16.441
		c0.418,0.129,0.719,0.651,1.076,0.996c-4.971,0.42-9.368-0.695-12.955-4.458c-0.998-1.046-2.493-1.625-3.787-2.37
		c-6.478-3.75-11.06-9.638-10.844-16.41c0.1-3.152-0.031-6.582-1.508-8.436c-2.229-2.789,2.845-5.406-0.896-7.76
		c-3.494-2.198,0.656-5.381-0.224-8.257C190.538,670.522,192.237,669.132,194.537,668.743z"/>
	<path fill-rule="evenodd" clip-rule="evenodd" fill="#413B4D" d="M365.139,342.269c3.479,0.847,4.703,4.342,6.268,6.638
		c5.611,8.233,12.574,15.624,16.484,24.978c-1.908,0.024-3.975-0.756-4.396-2.342c-1.465-5.514-7.254-7.324-9.66-11.945
		c-0.586-1.127-1.615-1.849-2.92-2.182c-1.146-0.294-2.949,0.169-3.23-1.281c-0.385-1.991,1.768-0.877,2.504-1.529
		c0.723-0.638,0.217-1.267-0.518-1.654C365.258,350.622,364.973,346.541,365.139,342.269z"/>
	<path fill-rule="evenodd" clip-rule="evenodd" fill="#847186" d="M192.644,528.274c1.69,0.167,2.844,0.961,2.943,2.771
		c0.156,2.999,0.474,5.991-0.413,8.966c-1.164,3.923-1.127,7.789-0.074,11.822c1.408,5.395,0.407,10.985,0.502,16.49
		c0.026,1.466-1.309,1.965-2.688,1.965c-0.93-6.436,0.213-12.889-0.216-19.329c-0.098-1.484,0.462-3.165-0.058-4.439
		C190.15,540.394,191.208,534.353,192.644,528.274z"/>
	<path fill-rule="evenodd" clip-rule="evenodd" fill="#847186" d="M197.142,605.603c-1.622-0.228-3.347-0.197-4.486-1.693
		c0.495-4.384-0.099-8.799,0.919-13.215c1.403-6.09,0.462-12.24-0.765-18.3c4.299,0.548,2.96,3.947,2.926,6.324
		c-0.117,8.91,1.644,17.599,2.732,26.36C197.999,605.19,197.558,605.362,197.142,605.603z"/>
	<path fill-rule="evenodd" clip-rule="evenodd" fill="#847186" d="M286.364,616.243c7.596-0.056,15.19-0.104,22.789-0.16
		C303.399,618.453,291.344,618.534,286.364,616.243z"/>
	<path fill-rule="evenodd" clip-rule="evenodd" fill="#413B4D" d="M324.787,270.942c1.434,2.883,2.734,5.803,2.463,9.146
		C321.939,278.618,321.598,277.346,324.787,270.942z"/>
	<path fill-rule="evenodd" clip-rule="evenodd" fill="#413B4D" d="M358.02,332.77c1.842,1.796,6.773,1.633,4.012,6.342
		C357.469,338.313,357.469,338.313,358.02,332.77z"/>
	<path fill-rule="evenodd" clip-rule="evenodd" fill="#413B4D" d="M324.656,267.853c1.428,0.896,0.709,1.839,0.066,2.78
		c-2.893,0.373-5.771,0.602-8.652-0.669C318.984,269.235,322.137,269.778,324.656,267.853z"/>
	<path fill-rule="evenodd" clip-rule="evenodd" fill="#413B4D" d="M333.453,612.653c2.936,0.615,5.865,0.203,8.797-0.056
		c-0.029,1.483-0.1,3.061-2.186,2.82c-2.352-0.271-4.68-0.757-7.02-1.151C333.18,613.73,333.316,613.189,333.453,612.653z"/>
	<path fill-rule="evenodd" clip-rule="evenodd" fill="#413B4D" d="M241.124,507.396c-1.625,1.287-3.202,1.78-4.615-0.292
		C238.183,505.038,239.714,505.277,241.124,507.396z"/>
	<path fill-rule="evenodd" clip-rule="evenodd" fill="#413B4D" d="M254.972,507.334c-1.756,1.928-3.837,1.459-5.943,0.813
		c-0.264-0.314-0.399-0.675-0.418-1.084C250.849,504.403,252.826,507.83,254.972,507.334z"/>
	<path fill-rule="evenodd" clip-rule="evenodd" fill="#161A1C" d="M284.799,224.789c1.368-1.039,3.56-0.907,3.671,0.251
		c0.233,2.418-1.602,0.288-2.494,0.501C285.668,225.615,285.214,225.07,284.799,224.789z"/>
	<path fill-rule="evenodd" clip-rule="evenodd" fill="#847186" d="M319.473,615.775c2.297-2.045,5.16-0.917,7.736-1.386
		C325.033,617.093,322.207,616.169,319.473,615.775z"/>
	<path fill-rule="evenodd" clip-rule="evenodd" fill="#413B4D" d="M173.457,608.202c0.4,0.479,0.819,0.75,0.853,1.064
		c0.093,0.85,0.41,1.848-0.705,2.364c-0.191-0.419-0.542-0.831-0.542-1.243C173.063,609.716,173.291,609.052,173.457,608.202z"/>
	<path fill-rule="evenodd" clip-rule="evenodd" fill="#161A1C" d="M219.461,727.155c0.422,0.179,0.844,0.357,1.262,0.542
		c-0.179,0.419-0.271,1.077-0.569,1.188c-0.311,0.117-0.819-0.29-1.241-0.476C219.094,727.992,219.276,727.573,219.461,727.155z"/>
	<path fill-rule="evenodd" clip-rule="evenodd" fill="#413B4D" d="M246.453,503.854c-0.348-0.128-0.789-0.288-1.229-0.452
		c0.554-0.428,1.09-0.896,1.681-1.268c0.545-0.346,1.121-0.146,1.136,0.471C248.063,503.495,247.373,503.836,246.453,503.854z"/>
	<path fill-rule="evenodd" clip-rule="evenodd" fill="#413B4D" d="M388.576,375.191c0.832,0.157,1.143,0.709,1.143,1.497
		c-1.611,0.016-3.273,0.702-4.852-0.381C385.822,374.859,387.369,375.588,388.576,375.191z"/>
	<path fill-rule="evenodd" clip-rule="evenodd" fill="#161A1C" d="M207.97,345.293c-0.055,0.977-0.111,1.953-0.166,2.931
		c-0.939-0.134-2.211-0.206-2.328-1.238C205.276,345.248,206.818,345.413,207.97,345.293z"/>
	<path fill-rule="evenodd" clip-rule="evenodd" fill="#413B4D" d="M191.117,345.162c0.647,0.251,1.288,0.503,1.929,0.754
		c-0.641,0.254-1.281,0.509-1.922,0.761l-0.007-0.002C191.161,346.17,191.161,345.666,191.117,345.162z"/>
	<path fill-rule="evenodd" clip-rule="evenodd" fill="#413B4D" d="M173.346,564.021c-0.216,0.062-0.432,0.123-0.647,0.185
		c-0.052-0.185-0.197-0.493-0.142-0.529c0.172-0.124,0.413-0.148,0.628-0.21C173.242,563.65,173.294,563.835,173.346,564.021z"/>
	<path fill-rule="evenodd" clip-rule="evenodd" fill="#161A1C" d="M280.969,137.424c0.154,0.015,0.386-0.025,0.443,0.058
		c0.102,0.138,0.176,0.397,0.111,0.531c-0.276,0.565-0.573,0.536-0.738-0.072C280.742,137.797,280.901,137.598,280.969,137.424z"/>
	<path fill-rule="evenodd" clip-rule="evenodd" fill="#161A1C" d="M363.639,614.538c0.508-1.072,1.006-1.01,1.502,0.006l0.027-0.024
		c-0.516,0-1.027,0.006-1.537,0.006L363.639,614.538z"/>
	<path fill-rule="evenodd" clip-rule="evenodd" fill="#413B4D" d="M374.289,605.468c-0.037-0.523-0.08-1.047-0.125-1.57
		c0.525,0.228,1.049,0.462,1.568,0.695C375.25,604.889,374.768,605.178,374.289,605.468z"/>
	<path fill-rule="evenodd" clip-rule="evenodd" fill="#413B4D" d="M378.771,604.421c0.812-0.222,1.41,0.11,1.908,0.72
		C380.045,604.9,379.412,604.661,378.771,604.421z"/>
	<polygon fill-rule="evenodd" clip-rule="evenodd" fill="#413B4D" points="191.117,345.162 190.517,344.818 190.781,344.557 	"/>
	<path fill-rule="evenodd" clip-rule="evenodd" fill="#413B4D" d="M166.905,467.737c0.11-0.2,0.264-0.582,0.333-0.569
		c0.474,0.095,0.356,0.326-0.327,0.572L166.905,467.737z"/>
	<path fill-rule="evenodd" clip-rule="evenodd" fill="#161A1C" d="M189.529,467.821l-0.666,0.104l-0.677-0.01
		C188.552,466.805,188.993,466.626,189.529,467.821z"/>
	<path fill-rule="evenodd" clip-rule="evenodd" fill="#413B4D" d="M233.513,506.916c-0.559-0.413-1.119-0.825-1.679-1.238
		C232.637,505.765,233.199,506.177,233.513,506.916z"/>
	<path fill-rule="evenodd" clip-rule="evenodd" fill="#161A1C" d="M212.317,101.511c-0.209-0.113-0.609-0.271-0.597-0.331
		c0.117-0.498,0.345-0.371,0.576,0.352L212.317,101.511z"/>
	<path fill-rule="evenodd" clip-rule="evenodd" fill="#2C2A37" d="M384.799,620.726c0.068-2.081,1.195-3.571,3.203-3.048
		c3.975,1.028,5.146-1.059,6.004-4.279c0.688-2.586,1.807-5.068,2.736-7.599c0.521-0.093,1.041-0.179,1.562-0.271
		c2.172-0.03,4.354-0.061,6.525-0.098c0.4,0.067,0.809,0.098,1.221,0.104c0.006,2.512-0.059,5.03,0.029,7.543
		c0.166,4.754,1.215,9.113,5.277,12.254c3.326,2.574,4.771,5.653,2.494,9.846c-0.973,1.786-3.047,4.009-0.486,5.998
		c1.404,1.089,3.686,1.183,4.949-0.024c1.783-1.712,3.426-4.428,1.855-6.663c-1.719-2.438-0.656-4.735-1.109-7.007
		c-0.545-2.729,0.174-3.688,2.691-4.027c1.855-0.246,2.406-1.706,2.365-3.313c-0.148-5.332,3.029-10.079,2.678-15.394
		c-0.111-1.681,0.732-2.119,1.896-2.672c1.41-0.666,1.438-1.934,1.107-3.215c-1.236-4.81-2.424-9.551-1.24-14.648
		c0.664-2.84-3.484-5.154-1.502-8.449c-4.279-8.189-1.955-17.832-5.754-26.177c-0.721-1.588-0.939-3.361-2.531-4.39
		c-1.027-0.665-1.207-1.484-0.609-2.501c3.369-5.72-0.061-12.493,2.826-18.33c0.529-1.072,0.205-2.679-0.77-3.522
		c-2.932-2.549-3.055-5.468-1.551-8.733c0.566-1.241,0.602-2.377-0.4-3.451c-0.502-0.536-1.016-1.133-1.295-1.798
		c-1.17-2.839,1.805-4.569,1.979-6.891c0.168-2.242-4.779-3.005-3.006-5.628c1.877-2.777,0.053-4.495-0.477-6.619
		c-1.262-5.068-3.012-10.04-3.857-15.167c-0.592-3.602,3.102-6.164,3.713-9.649c2.312,5.065,2.277,10.619,3.01,15.955
		c2.174,15.804,4.65,31.567,6.098,47.479c0.467,5.13,2.15,10.229,2.799,15.456c1.129,9.182,1.492,18.381,1.928,27.617
		c0.42,8.72,2.535,17.34,3.609,26.041c1.805,14.6,5.998,28.818,7.057,43.491c0.949,13.085,4.688,25.844,3.676,39.225
		c-0.283,3.726,0.887,8.251,1.73,12.327c2.014,9.692,1.096,19.409,0.715,29.132c-2.307-1.952-3.461-4.686-5.037-7.155
		c-1.256-1.97-2.881-3.022-5.49-0.918c-3.426,2.766-4.029,2.438-6.186-2.074c-1.736-3.646-2.359,0.506-3.564,0.375l0.025,0.026
		c-3.113-2.545-1.527-6.689-3.447-9.914c-1.652-2.784-3.119-5.961-4.41-9.077c4.289-3.437-1.461-5.573-1.146-8.578
		c0.207-1.963-0.537-4.188,0.98-5.776c4.033-4.198-2.088-9.469,1.582-13.633c-2.189-2.345-4.193-4.907-6.641-6.933
		c-1.26-1.047-2.973-0.277-3.342,1.614c-0.238,1.218-0.355,2.554-0.123,3.754c2.002,10.309,1.01,20.795,1.979,31.159
		c0.387,4.212,0.92,8.812,6.34,10.172c-4.266,3.251-4.506,3.473-3.342,7.931c0.775,2.95,2.037,5.759-0.58,8.394
		c-4.873-1.022-9.746-2.044-14.617-3.066c-1.016-2.839-1.891-5.653-1.916-8.763c-0.141-18.048-4.4-35.855-3.111-53.99
		c-3.082-9.267-2.281-19.329-5.871-28.534C387.295,622.758,385.668,622.179,384.799,620.726z"/>
	<path fill-rule="evenodd" clip-rule="evenodd" fill="#2C2A37" d="M254.123,767.364c16.655,0.728,32.986-1.687,49.307-4.711
		c17.11-3.17,33.317-9.205,49.739-14.618c0.266,2.926,2.463,2.697,4.471,2.691c4.262-0.013-0.367,3.251,1.902,4.316
		c2.029-1.693,4.713-2.223,6.928-4.686c1.494-1.662,5.865,0.652,8.939,1.256c1.135,0.222,1.609-1.005,2.402-1.545
		c5.566-3.807,11.238-7.463,16.729-11.374c2.129-1.521,3.309-1.016,5.107,0.598c3.453,3.098,14.383,3.54,15.52-0.068
		c1.641-5.203,4.104-2.506,6.574-2.647c4.051-0.234,7.08-3.425,10.984-4.106c4.656-0.813,7.611-3.412,8.996-7.9
		c0.672-2.186,1.348-4.44,4.365-4.236c1.373,2.192-0.029,4.408-0.037,6.606c-0.018,4.569-2.074,7.254-6.531,9.729
		c-10.467,5.796-21.5,10.321-32.145,15.678c-8.654,4.353-17.771,8.024-27.025,10.881c-15.463,4.778-30.672,10.474-46.959,12.419
		c-20.178,2.414-40.426,4.127-60.553,1.484c-9.459-1.237-19.349-1.717-28.399-5.737c-1.842-0.814-4.397,0.399-6.323-2.039
		C243.396,767.253,249.264,770.665,254.123,767.364z"/>
	<path fill-rule="evenodd" clip-rule="evenodd" fill="#161A1C" d="M446.086,720.333c-3.018-0.204-3.693,2.051-4.365,4.236
		c-1.385,4.488-4.34,7.087-8.996,7.9c-3.904,0.682-6.934,3.872-10.984,4.106c-2.471,0.142-4.934-2.556-6.574,2.647
		c-1.137,3.608-12.066,3.166-15.52,0.068c-1.799-1.613-2.979-2.118-5.107-0.598c-5.49,3.911-11.162,7.567-16.729,11.374
		c-0.793,0.54-1.268,1.767-2.402,1.545c-3.074-0.604-7.445-2.918-8.939-1.256c-2.215,2.463-4.898,2.992-6.928,4.686
		c-2.27-1.065,2.359-4.329-1.902-4.316c-2.008,0.006-4.205,0.234-4.471-2.691c8.023-4.476,17.131-6.435,25.229-10.646
		c6.576-3.43,13.896-5.148,20.146-9.236c3.344-1.467,6.75-2.815,10.01-4.44c2.076-1.041,4.842-1.552,4.99-4.717
		c2.617-2.635,1.355-5.443,0.58-8.394c-1.164-4.458-0.924-4.68,3.342-7.931c-5.42-1.36-5.953-5.96-6.34-10.172
		c-0.969-10.364,0.023-20.851-1.979-31.159c-0.232-1.2-0.115-2.536,0.123-3.754c0.369-1.892,2.082-2.661,3.342-1.614
		c2.447,2.025,4.451,4.588,6.641,6.933c-3.67,4.164,2.451,9.435-1.582,13.633c-1.518,1.589-0.773,3.813-0.98,5.776
		c-0.314,3.005,5.436,5.142,1.146,8.578c1.291,3.116,2.758,6.293,4.41,9.077c1.92,3.225,0.334,7.369,3.447,9.914
		c-2.027-0.992-3.75-1.085-4.363,1.625c-0.225,1.003,0.07,2.161,1.135,2.253c2.139,0.191,2.791-1.423,3.123-3.189
		c0.043-0.233,0.055-0.479,0.08-0.715c1.205,0.131,1.828-4.021,3.564-0.375c2.156,4.513,2.76,4.84,6.186,2.074
		c2.609-2.104,4.234-1.052,5.49,0.918c1.576,2.47,2.73,5.203,5.037,7.155C446.18,719.828,446.229,720.062,446.086,720.333z"/>
	<path fill-rule="evenodd" clip-rule="evenodd" fill="#2C2A37" d="M168.376,396.651c-0.2-0.222-0.397-0.443-0.594-0.666
		c0.224,0.195,0.446,0.393,0.667,0.588C168.454,396.572,168.376,396.651,168.376,396.651z"/>
	<path fill-rule="evenodd" clip-rule="evenodd" fill="#2C2A37" d="M168.322,408.799c-0.185-0.244-0.376-0.489-0.566-0.733
		c0.246,0.19,0.486,0.381,0.732,0.571C168.487,408.635,168.322,408.799,168.322,408.799z"/>
	<path fill-rule="evenodd" clip-rule="evenodd" fill="#2C2A37" d="M172.976,650.867c-0.125,0.216-0.295,0.629-0.37,0.61
		c-0.529-0.129-0.412-0.375,0.333-0.647L172.976,650.867z"/>
	<path fill-rule="evenodd" clip-rule="evenodd" fill="#413B4D" d="M381.961,708.208c-0.992-0.02-1.459-0.586-1.588-1.515
		c-0.42-16.958-2.119-33.807-4.113-50.641c-0.854-7.186-0.555-14.496-3.246-21.429c-0.6-1.552-0.238-3.479-0.295-5.234
		c-0.086-2.728,0.494-5.067,3.66-5.665c2.863-0.542,6.229,1.299,6.838,4.391c0.896,4.557,1.848,9.039,2.082,13.843
		c0.512,10.517-1.49,21.156,1.041,31.527c0.867,3.571-1.523,6.151-1.568,9.335c-0.076,5.702-0.611,11.422-0.279,17.093
		C384.682,703.214,383.957,705.794,381.961,708.208z"/>
	<path fill-rule="evenodd" clip-rule="evenodd" fill="#413B4D" d="M413.543,718.996c-0.148,3.165-2.914,3.676-4.99,4.717
		c-3.26,1.625-6.666,2.974-10.01,4.44c0.123-4.077,0.25-8.146,0.375-12.224C403.797,716.952,408.67,717.974,413.543,718.996z"/>
	<path fill-rule="evenodd" clip-rule="evenodd" fill="#2C2A37" d="M380.271,620.634c0.514,0,1.031,0,1.545,0.006
		C381.299,621.515,380.785,621.422,380.271,620.634z"/>
	<path fill-rule="evenodd" clip-rule="evenodd" fill="#2C2A37" d="M401.352,584.298c-3.74-14.249-3.678-28.96-5.24-43.468
		c-0.555-5.153-0.656-10.363-0.967-15.541c1.508,0.492,2.814,1.379,3.006,3.004c0.818,6.885,1.133,13.886,5.387,19.84
		c0.672,0.942,0.383,1.965-0.461,2.648c-1.75,1.416-1.861,3.411-2.145,5.339c1.434,1.822,3.998,0.024,5.414,1.773
		c-5.014,7.647-4.904,8.103,3.602,15.604c-1.191,1.096-2.461,1.995-3.078,3.719c-0.73,2.032-0.992,1.934,2.918,3.344
		c-3.152,0.93-5.424,2.198-5.498,5.302C403.309,585.338,402.33,584.82,401.352,584.298z"/>
	<path fill-rule="evenodd" clip-rule="evenodd" fill="#2C2A37" d="M395.139,524.131c-2.367-4.89-3.152-10.061-2.832-15.442
		c5.08,1.358,3.281,5.739,3.695,8.952C396.271,519.733,395.465,521.964,395.139,524.131z"/>
	<path fill-rule="evenodd" clip-rule="evenodd" fill="#2C2A37" d="M370.15,384.437c-1.746-0.063-3.172-0.293-3.195-2.285
		c-0.02-1.215,0.855-1.847,1.844-1.603c1.326,0.329,2.971,0.709,3.188,2.418C372.164,384.346,370.766,384.118,370.15,384.437z"/>
	<path fill-rule="evenodd" clip-rule="evenodd" fill="#413B4D" d="M401.352,584.298c0.979,0.522,1.957,1.04,2.938,1.563
		c-0.451,3.005-0.898,6.004-1.342,9.009C400.395,591.649,401.561,587.869,401.352,584.298z"/>
	<path fill-rule="evenodd" clip-rule="evenodd" fill="#413B4D" d="M406.051,605.535c-0.412-0.007-0.82-0.037-1.221-0.104
		c0.131-2.1-0.328-4.268,0.734-6.257C405.723,601.293,405.889,603.41,406.051,605.535z"/>
	<path fill-rule="evenodd" clip-rule="evenodd" fill="#2C2A37" d="M392.293,508.651c-1.285-0.538-0.945-1.182-0.115-1.859
		C392.215,507.412,392.254,508.03,392.293,508.651z"/>
	<path fill-rule="evenodd" clip-rule="evenodd" fill="#413B4D" d="M403.949,595.8c0,0-0.043-0.153-0.047-0.153
		c0.377-0.019,0.758-0.037,1.137-0.056C404.678,595.658,404.314,595.732,403.949,595.8z"/>
	<path fill-rule="evenodd" clip-rule="evenodd" fill="#413B4D" d="M398.305,605.528c-0.521,0.093-1.041,0.179-1.562,0.271
		c-1.527-0.345-3.303,0.062-4.434-1.466C394.43,604.106,396.646,603.423,398.305,605.528z"/>
	<path fill-rule="evenodd" clip-rule="evenodd" fill="#413B4D" d="M391.973,604.192c-0.369,0.025-0.717-0.049-1.047-0.215
		C391.465,603.121,391.838,603.066,391.973,604.192z"/>
	<path fill-rule="evenodd" clip-rule="evenodd" fill="#2C2A37" d="M240.107,251.355c-1.145-0.189-3.091-0.062-2.733-1.535
		c0.352-1.45,1.225-3.667,3.792-2.834C241.118,248.518,241.721,250.204,240.107,251.355z"/>
	<path fill-rule="evenodd" clip-rule="evenodd" fill="#2C2A37" d="M229.217,309.008c-1.228-1.088-2.461-2.175-4.153-3.673
		c1.834-1.467,3.766-0.805,5.465-1.012C230.543,306.009,230.772,307.759,229.217,309.008z"/>
	<path fill-rule="evenodd" clip-rule="evenodd" fill="#2C2A37" d="M239.664,257.393c-0.695,0.082-1.392,0.15-2.08,0.246
		c-0.635,0.087-1.562,0.654-1.777-0.219c-0.296-1.195,0.8-1.388,1.714-1.474c0.697-0.066,1.398-0.057,2.101-0.081
		C239.633,256.375,239.648,256.884,239.664,257.393z"/>
	<path fill-rule="evenodd" clip-rule="evenodd" fill="#C1E829" d="M245.606,57.456c1.767-0.209,3.56-0.474,4.605-2.12
		c0.786-1.238,1.646-1.803,3.029-1.064c5.198,1.335,11.161,0.081,15.396,4.754c-0.771,1.865-2.643,3.298-4.569,2.692
		c-6.127-1.931-12.408-0.212-18.491-1.271C242.035,59.829,244.106,58.459,245.606,57.456z"/>
	<path fill-rule="evenodd" clip-rule="evenodd" fill="#2C2A37" d="M277.644,57.608c0.721,0.394,1.103,0.998,1.115,1.827
		C278.082,59.015,277.632,58.452,277.644,57.608z"/>
	<path fill-rule="evenodd" clip-rule="evenodd" fill="#2C2A37" d="M215.348,325.501c0.027-0.751-0.004-1.51,0.098-2.25
		c0.209-1.479,1.281-2.487,2.56-1.957c1.732,0.722,0.5,2.112-0.037,3.068c-0.528,0.931-1.636,1.041-2.649,1.113L215.348,325.501z"/>
	<path fill-rule="evenodd" clip-rule="evenodd" fill="#2C2A37" d="M215.319,325.476c-0.052,2.971-2.576,3.477-4.535,4.547
		l0.016,0.015c0.055-2.976,1.7-4.358,4.549-4.537L215.319,325.476z"/>
	<path fill-rule="evenodd" clip-rule="evenodd" fill="#3EA434" d="M235.224,107.494c2.817,5.573,6.035,10.898,5.752,17.631
		c-0.121,2.802-0.382,5.311-1.651,7.744C236.249,124.685,234.922,116.221,235.224,107.494z"/>
	<path fill-rule="evenodd" clip-rule="evenodd" fill="#2C2A37" d="M231.713,147.181c0.32,0.437,0.799,0.84,0.725,1.031
		c-0.36,0.94-1.093,1.535-2.148,1.253c-0.589-0.157-0.675-0.736-0.209-1.15C230.57,147.876,231.167,147.554,231.713,147.181z"/>
	<path fill-rule="evenodd" clip-rule="evenodd" fill="#2C2A37" d="M339.492,623.559c0.664,0.351,1.213,0.807,1.084,1.644
		c-0.025,0.167-0.352,0.283-0.543,0.425c-0.227-0.646-0.455-1.293-0.689-1.938L339.492,623.559z"/>
	<path fill-rule="evenodd" clip-rule="evenodd" fill="#2C2A37" d="M363.631,614.525c0.51,0,1.021-0.006,1.537-0.006
		C364.658,615.56,364.146,615.554,363.631,614.525z"/>
	<path fill-rule="evenodd" clip-rule="evenodd" fill="#2C2A37" d="M425.668,709.857c-0.025,0.235-0.037,0.481-0.08,0.715
		c-0.332,1.767-0.984,3.381-3.123,3.189c-1.064-0.092-1.359-1.25-1.135-2.253c0.613-2.71,2.336-2.617,4.363-1.625L425.668,709.857z"
		/>
</g>
</svg>
